<?xml version="1.0" encoding="UTF-8" standalone="no"?>
<!DOCTYPE svg PUBLIC "-//W3C//DTD SVG 1.1//EN" "http://www.w3.org/Graphics/SVG/1.1/DTD/svg11.dtd">
<svg width="100%" height="100%" viewBox="0 0 1964 1964" version="1.1" xmlns="http://www.w3.org/2000/svg" xmlns:xlink="http://www.w3.org/1999/xlink" xml:space="preserve" xmlns:serif="http://www.serif.com/" style="fill-rule:evenodd;clip-rule:evenodd;stroke-linejoin:round;stroke-miterlimit:2;">
    <g transform="matrix(1,0,0,1,-10565.8,-2533.27)">
        <g id="Artboard2" transform="matrix(1,0,0,1,7289.74,2602.8)">
            <rect x="3276.02" y="-69.535" width="1963.47" height="1963.47" style="fill:none;"/>
            <g transform="matrix(1.08937,0,0,1.08937,-292.767,-69.577)">
                <circle cx="4176.98" cy="901.445" r="900.98"/>
            </g>
            <g transform="matrix(0.881572,0,0,0.402863,5982.54,689.821)">
                <g id="Screen-Print-Front-" serif:id="Screen Print Front ">
                    <g>
                        <g transform="matrix(42.9272,0,0,93.9363,-10458.5,-70309.9)">
                            <g id="_2024FEB-Update" serif:id="2024FEB Update">
                                <g>
                                    <g transform="matrix(0.781472,0,0,0.781472,49.1358,167.769)">
                                        <g transform="matrix(0.907276,0,0,0.907276,9.5493,70.0951)">
                                            <g transform="matrix(0.964242,0,0,0.964242,3.5374,26.9595)">
                                                <path d="M185.628,756.572C185.928,756.572 186.145,756.428 186.4,756.343C186.712,756.238 187,756.143 187.5,755.943C188,755.743 188.5,755.457 188.9,755.3C189.224,755.173 189.5,755.1 189.9,755C190.4,754.9 190.792,755.028 191.085,755.128C191.174,755.158 191.432,755.276 191.509,755.343C191.591,755.414 191.72,755.491 191.772,755.543C192.072,755.843 192.057,756.2 192.057,756.6C192.057,756.7 192.041,756.766 192,757C191.912,756.984 191.809,756.897 191.785,756.8C191.748,756.653 191.715,756.489 191.685,756.4C191.485,755.8 191.3,755.5 190.6,755.5C190,755.5 189.4,755.6 188.8,755.8C188.3,756 187.8,756.2 187.4,756.6C187,756.9 186.6,757.2 186.1,757.4C185.918,757.473 185.8,757.5 185.7,757.6C186,757.8 186.2,757.8 186.5,757.7C186.8,757.6 187,757.4 187.3,757.2C187.8,756.8 188.4,756.5 189,756.2C189.4,756 189.9,755.9 190.3,755.9C190.4,755.9 190.501,755.888 190.6,755.9C190.927,755.939 191.4,756.3 191.4,756.8C191.3,756.8 191.2,756.7 191.2,756.7C190.9,756.5 190.6,756.4 190.2,756.4C189.8,756.4 189.4,756.5 189.1,756.8C188.8,757 188.6,757.2 188.3,757.4C188,757.6 187.8,757.8 187.5,758C187.1,758.3 186.6,758.4 186,758.4L185.7,758.4L185.8,758.5C186.2,758.8 186.6,758.9 187.1,758.7C187.3,758.6 187.5,758.5 187.7,758.3C188.1,758 188.5,757.7 188.9,757.4C189.1,757.3 189.3,757.1 189.5,757C190,756.7 190.769,756.724 191.084,757.069C191.229,757.226 191.354,757.452 191.4,757.7C191.428,757.847 191.583,757.967 191.8,758.1C191.889,758.154 191.89,758.41 191.8,758.5C191.6,758.7 191.5,758.9 191.6,759.2C191.7,759.7 191.684,759.672 191.7,759.911C191.717,760.161 191.733,760.585 191.7,760.7C191.679,760.772 191.57,760.626 191.5,760.6C191.367,760.55 191.1,760.5 190.9,760.4C190.6,760.3 190.3,760.4 190.1,760.7C190,760.9 189.9,761.1 189.8,761.3C189.6,761.6 189.183,761.767 189,761.9C188.903,761.971 188.8,762 188.7,762.1C188.8,762.2 188.887,762.315 189,762.4C189.2,762.55 189.6,762.8 189.9,763C190.5,763.4 191.2,763.5 191.9,763.2C192.4,763 192.8,762.8 193.2,762.4C193.6,762 193.717,761.433 193.8,761C193.876,760.606 193.7,760.2 193.7,759.8C193.7,759.5 193.567,759.2 193.5,759C193.453,758.859 193.4,758.7 193.3,758.6L193.2,758.5C193.2,758.5 193.3,758.5 193.3,758.4C193.6,758.3 193.6,758.1 193.5,757.9C193.5,757.8 193.4,757.7 193.4,757.6L193.4,757.4C193.5,757.4 193.6,757.5 193.7,757.5C194,757.7 194.3,757.7 194.6,757.4C194.7,757.3 194.8,757.2 194.9,757.2C194.9,757.3 195,757.4 194.9,757.5C194.8,758.1 194.9,758.7 195,759.3C195.1,759.8 195,760.1 195,760.6C195,761.1 194.96,761.4 194.86,761.9C194.76,762.9 194.589,763.254 193.8,764C193.335,764.44 192.633,764.761 192.2,764.913C191.885,765.024 191.53,764.96 191.2,764.913C190.833,764.861 190.466,764.833 190,764.6L189.9,764.5C189.839,764.687 189.796,764.91 189.843,765.243C189.843,765.443 189.948,765.672 189.857,765.943C189.789,766.146 189.443,766.343 189.143,766.343C188.743,766.343 188.407,766.174 188.2,766.1C188.087,766.06 188,766 187.9,765.9C187.848,766.003 187.859,766.132 187.947,766.227C188.057,766.345 188.238,766.461 188.367,766.54C188.55,766.65 188.862,766.7 188.962,766.9C189.062,767.4 189.1,768 189.2,768.5C189.4,769.4 189.5,770.4 189.5,771.3C189.5,772.4 189.3,773.4 188.9,774.4C188.5,775.3 188,776 187.2,776.7C187.1,776.8 187,776.9 186.9,777C186.8,777.1 186.7,777.3 186.8,777.4C186.9,777.6 187,777.8 187.1,778C187.2,778.1 187.2,778.2 187.3,778.4C187,778.6 186.6,778.6 186.3,778.3C185.8,777.8 185.4,777.2 185,776.7C184.9,776.5 184.9,776.4 185.1,776.3C185.1,776.3 185.2,776.3 185.3,776.2C186,776 186.5,775.5 186.8,774.8C187.1,774.2 187.3,773.6 187.3,772.9C187.4,772 187.2,771.1 187,770.2C186.9,769.9 186.9,769.7 186.8,769.4C186.8,769.2 186.8,769.1 186.9,768.9C187.1,768.6 187.383,768.183 187.5,768C187.54,767.937 187.6,767.875 187.6,767.8C187.6,767.717 187.567,767.567 187.5,767.5C187.433,767.433 187.303,767.421 187.2,767.4C187.033,767.367 186.8,767.3 186.5,767.3L186.4,767.3C186.2,767.3 186.1,767.4 186.1,767.6C186.1,767.8 186.1,768 186.2,768.2C186.2,768.3 186.3,768.5 186.3,768.6C186.4,768.9 186.3,769.1 186.1,769.3C185.8,769.5 185.6,769.7 185.4,770C184.8,770.6 184.1,770.9 183.4,771C183.1,771.1 182.8,771.1 182.5,771.1L182.2,771.1C181.7,770.9 181.2,770.7 180.8,770.3C180.7,770.2 180.5,770 180.4,769.9C180.3,769.7 180.1,769.6 179.8,769.6C179.6,769.6 179.4,769.6 179.2,769.7L179,769.7C179.2,769.2 179.5,768.9 179.9,768.7C180.1,768.6 180.2,768.6 180.4,768.7C180.5,768.7 180.6,768.8 180.7,768.9C181.5,769.4 182.2,769.5 183,769C183.2,768.9 183.5,768.7 183.7,768.6C183.8,768.6 183.8,768.5 183.9,768.5C184.1,768.4 184.1,768.2 184,768C184,767.9 183.9,767.9 183.9,767.8C183.8,767.7 183.8,767.6 183.7,767.5C183.6,767.4 183.6,767.2 183.8,767.1C183.9,767 184,766.967 184.1,766.9C184.25,766.8 184.551,766.689 184.7,766.5C184.883,766.267 185.3,766 185.2,765.5C185.06,764.798 185,764.5 185,764.1L185,764C185.1,764 185.283,764.017 185.4,764C185.504,763.985 185.613,763.959 185.7,763.9C185.801,763.831 185.908,763.784 186.008,763.584C185.999,763.584 186.008,763.584 186.008,763.584C186.008,763.584 185.968,763.614 185.866,763.636C185.752,763.659 185.657,763.674 185.553,763.667C185.432,763.658 185.285,763.636 185.143,763.584C184.941,763.512 184.724,763.357 184.6,763.2C184.377,762.917 184.153,762.442 184.144,762.1C184.136,761.774 184.196,761.637 184.312,761.463C184.381,761.36 184.812,761.292 185.2,761.379C185.513,761.449 185.762,761.29 185.91,761.115C186.001,761.007 185.482,760.64 185.482,760.64C185.482,760.64 185.434,760.558 185.356,760.22C185.025,758.797 184.536,757.848 184.7,756.774C184.788,756.195 184.83,755.7 184.83,755.5L184.83,755.4C184.73,755 184.319,754.947 184,754.9C183.662,754.85 183.05,755.033 182.8,755.1C182.684,755.131 182.56,755.196 182.5,755.3C182.433,755.417 182.4,755.6 182.4,755.8L182.4,756.1L182.3,756.1C182.2,756.1 182.2,756.1 182.1,756C181.7,755.8 181.395,755.79 181,756C180.917,756.044 180.8,756.1 180.6,756.1C180.6,755.9 180.764,755.764 180.6,755.6C180.486,755.242 180.6,754.8 180.7,754.6C180.642,754.286 180.85,754.032 181.2,754C181.6,753.9 182,753.974 182.4,753.972C182.952,753.97 183.713,753.987 184.513,753.987C184.713,753.987 185.156,754.144 185.356,754.544C185.656,755.044 185.743,755.376 185.713,755.972M190.6,759.5C191,759.5 191.1,759.4 191.2,759.1C191.3,758.6 191.1,758 190.7,757.7C190.6,757.6 190.437,757.6 190.3,757.6C190.133,757.6 189.867,757.617 189.7,757.7C189.533,757.783 189.4,757.9 189.3,758.1C189.2,758.8 189.8,759.5 190.6,759.5Z" style="fill:rgb(242,85,0);fill-rule:nonzero;"/>
                                            </g>
                                            <g transform="matrix(0.964242,0,0,0.964242,3.5374,26.9595)">
                                                <path d="M190.7,759.1C190.6,759.2 190.4,759.2 190.3,759.1C190.1,758.9 189.9,758.8 189.7,758.6C189.5,758.4 189.6,758.2 189.8,758.1C190,758 190.2,758.1 190.4,758.1C190.5,758.1 190.5,758.2 190.5,758.3L190.5,758.5C190.5,758.6 190.4,758.7 190.4,758.8C190.5,758.9 190.6,759 190.7,759.1Z" style="fill:rgb(242,85,0);fill-rule:nonzero;"/>
                                            </g>
                                        </g>
                                        <g transform="matrix(0.982627,0,0,0.982627,-3.12307,12.0473)">
                                            <path d="M218.3,755.6C218,755 217.4,754.5 217.1,754.3C216.8,754.1 216.2,754.2 216.1,754.3C215.7,754.6 215.6,755.2 215.6,756C215.6,756.8 215.8,757.9 215.8,758.7C215.8,759.1 215.7,759.5 215.7,759.8C215.6,760.2 215.6,760.6 215.6,761C215.6,761.7 215.4,762.3 215.4,763C215.4,763.7 215.367,764.217 215.4,764.6C215.421,764.842 215.55,765.083 215.6,765.3C215.646,765.498 215.7,765.7 215.7,765.9C215.7,766.1 215.682,766.318 215.5,766.5C215.4,766.6 215,766.75 214.7,766.78C214.6,766.68 214.882,766.377 214.882,766.277C214.882,766.058 214.22,766.019 213.9,766.12C213.526,766.238 213.256,766.621 213.2,766.9C213.161,767.096 213.2,767.294 213.3,767.494C213.4,767.694 213.49,767.667 213.79,767.667C213.89,767.667 213.69,767.667 213.79,767.667C214.49,767.567 214.915,767.38 215.2,767.285C215.312,767.248 215.4,767.2 215.5,767.1C215.6,767 215.724,766.919 215.8,766.943C215.876,766.966 215.957,767.133 215.957,767.243C215.957,767.352 215.906,767.525 215.8,767.6C215.607,767.736 215.083,767.964 214.8,768.057C214.576,768.131 214.3,768.157 214.1,768.157L214,768.157C213.961,768.25 213.933,768.319 213.9,768.4C213.817,768.607 213.7,769.1 213.5,769.4C212.9,770.6 212.9,771.9 213.3,773.3C213.4,773.7 213.6,774.2 213.6,774.6C213.6,775 213.6,775.5 213.5,775.9C213.4,776.2 213.3,776.4 213.1,776.6C212.9,776.8 212.6,776.9 212.4,777.1L212.3,777.1L212.3,777C212.3,776.9 212.4,776.8 212.4,776.7C212.5,776.5 212.6,776.3 212.7,776.2C213,775.7 213,775.2 212.7,774.7C212.5,774.4 212.4,774.1 212.2,773.8C211.7,772.8 211.4,771.7 211.2,770.5C211.1,769.7 211.1,768.8 211.2,768C211.3,767.1 211.5,766.2 211.9,765.3C212,765.1 212.319,764.485 212.2,764.6C212.148,764.65 212.141,764.676 212.1,764.7C211.9,764.817 211.4,765.1 211,765.3C210.5,765.5 210,765.7 209.5,765.8C208.7,765.9 208,765.7 207.4,765.2C206.8,764.7 206.4,764.2 205.9,763.5C205.7,763.2 205.7,763 205.6,762.7C205.5,762.2 205.4,761.8 205.3,761.3C205.3,761.1 205.2,760.9 205.1,760.7C205.1,760.6 205.1,760.4 205.2,760.3C205.3,760.3 205.4,760.4 205.5,760.3C205.6,760.2 205.9,760.1 206,760.1C206.2,760.2 206.3,760.3 206.3,760.5C206.3,760.7 206.4,761 206.7,761.1C206.9,761.1 207.1,761.2 207.1,761.3L207.1,761.4C206.8,761.3 206.6,761.5 206.6,761.7C206.6,761.9 206.6,762 206.7,762.2C206.8,762.6 207.1,763 207.3,763.4C207.5,763.7 207.8,763.9 208.1,764.1C208.7,764.5 209.4,764.6 210.1,764.4C210.6,764.2 211.1,763.9 211.4,763.4C211.7,763.1 211.7,762.7 211.5,762.3C211.4,762.1 211.3,761.9 211.2,761.7C211.1,761.5 211,761.4 210.7,761.4C210.6,761.4 210.6,761.4 210.5,761.3C210.5,761.2 210.4,761.2 210.4,761.1C210.2,760.6 209.8,760.6 209.4,760.9L209.3,761C209.2,761.1 209.1,761.1 209,761.1C208.9,761.1 208.8,761.1 208.7,761C208.7,760.9 208.6,760.8 208.6,760.6C208.6,760.3 208.7,760 208.7,759.7C208.7,759.4 208.8,759.1 208.8,758.8C208.8,758.5 208.8,758.1 208.7,757.8L208.7,757C208.8,756.7 209.004,756.414 209.4,756.6C209.4,756.6 209.5,756.7 209.5,756.8C209.5,756.7 209.792,756.2 209.992,756.3C210.105,756.357 210.1,756.5 210.2,756.5C210.2,756.4 210.255,756.25 210.338,756.2C210.422,756.15 210.525,756.025 210.7,756.2C210.771,756.271 210.9,756.3 210.9,756.3C211.2,756.1 211.5,756.1 211.8,756.4C211.8,756.5 211.7,756.7 211.7,756.9C211.8,756.9 211.813,756.829 211.86,756.74C211.922,756.623 211.887,756.5 211.987,756.5C212.287,756.3 212.6,756.7 212.6,757.1C212.6,757.3 212.533,757.55 212.5,757.7C212.477,757.803 212.4,757.9 212.4,758C212.4,758.1 212.4,758.3 212.5,758.4C212.6,758.5 212.6,758.5 212.7,758.6C213.2,759 213.7,759.3 214.3,759.7C214.4,759.8 214.4,759.8 214.5,759.7C214.5,759.3 214.415,758.901 214.4,758.5C214.383,758.05 214.37,757.499 214.4,757C214.433,756.45 214.5,755.8 214.6,755.2C214.7,754.8 214.8,754.3 215,753.9C215.2,753.5 215.5,753.2 216,753.1C216.4,753 217,753.1 217.3,753.3C217.5,753.4 217.709,753.553 217.9,753.7C218.117,753.867 218.417,754.053 218.6,754.3C218.883,754.683 219.5,755.4 219.6,756C219.6,756.1 219.667,756.133 219.7,756.2C219.767,756.333 219.933,756.65 220,756.8C220.043,756.896 220.1,757 220.1,757.1C220.1,757.2 220.134,757.255 220,757.3C219.92,757.327 219.863,757.231 219.8,757.2C219.6,757.1 219.45,757.2 219.4,757.3C219.346,757.407 219.3,757.5 219.2,757.6C219,757.2 218.8,756.9 218.3,756.9C218.3,756.673 218.44,756.67 218.464,756.6C218.556,756.337 218.5,755.8 218.3,755.6M209.3,759.2C209.3,759.3 209.3,759.5 209.4,759.6C209.5,759.8 209.7,759.9 209.9,759.9C210.1,759.9 210.223,759.837 210.4,759.7C210.836,759.362 210.933,759.098 211.1,758.882C211.215,758.732 211.383,758.564 211.4,758.4C211.417,758.236 211.4,758 211.2,757.9C210.8,757.8 210.3,757.8 209.9,758.1C209.5,758.3 209.3,758.7 209.3,759.2ZM210.972,761.07L211.272,761.07C211.672,761.07 211.8,761.1 211.9,760.7C212,760.5 211.9,760.3 211.6,760.2L211.1,760.2C211,760.2 210.9,760.3 210.8,760.5C210.8,760.8 210.972,760.77 210.972,761.07Z" style="fill:rgb(242,85,0);fill-rule:nonzero;"/>
                                            <path d="M209.7,759.4C209.7,759.4 209.898,759.226 209.942,759.108C209.992,758.975 210.1,758.8 210,758.6C209.9,758.4 210.003,758.297 210.1,758.2C210.2,758.1 210.45,758.017 210.6,758C210.737,757.985 210.9,758 211,758.1C211.1,758.2 211.064,758.383 211,758.5C210.9,758.683 210.6,759 210.4,759.2C210.2,759.4 210,759.5 209.7,759.4Z" style="fill:rgb(242,85,0);fill-rule:nonzero;"/>
                                            <path d="M213.4,771.1C213.4,771.1 213.4,771 213.4,771.1C213.6,770.5 213.7,770 213.9,769.5C214.1,769 214.318,768.741 214.8,768.5C214.852,768.474 214.872,768.464 215,768.4C215.283,768.259 215.5,768.4 215.7,768.2C215.8,768.1 215.9,768.1 216,768.1C216.1,768.1 216.186,768.281 216.2,768.4C216.233,768.683 216.3,769.383 216.2,769.8C216.103,770.206 215.9,770.6 215.6,770.9C215.4,771.1 215.1,771.2 214.8,771.3C214.3,771.4 213.7,771.3 213.4,771.1Z" style="fill:rgb(242,85,0);fill-rule:nonzero;"/>
                                            <path d="M210.7,770.3C210.3,770.1 210,770 209.6,769.8C209.3,769.7 209.2,769.333 209.1,769.2C209.055,769.14 209.1,769.1 209,769C208.9,768.8 208.9,768.6 208.7,768.4C208.6,768.3 208.6,768.3 208.6,768.2C208.6,768.1 208.7,768.1 208.8,768.1C209.2,768.1 209.5,768.1 209.9,768.2C210.2,768.3 210.5,768.5 210.7,768.8C210.8,768.9 210.8,769.1 210.8,769.2C210.8,769.3 210.712,769.463 210.7,769.6C210.683,769.783 210.7,770 210.7,770.3Z" style="fill:rgb(242,85,0);fill-rule:nonzero;"/>
                                        </g>
                                    </g>
                                    <g transform="matrix(0.902943,-0.051193,0.0511931,0.902943,-21.3616,84.8323)">
                                        <path d="M195.812,749.224C195.812,749.224 196.2,749.508 196.4,749.708C197,750.208 197.3,750.6 197.9,751.1C198.6,751.8 199.2,752.4 199.9,753.1C200,753.2 200.009,753.274 200.1,753.3C200.217,753.333 200.489,753.333 200.6,753.3C200.684,753.275 200.746,753.141 200.769,753.1C201.819,751.158 203.101,750.532 204.4,748.8C204.933,748.089 205.024,748.201 205.4,747.7C205.5,747.6 205.621,747.509 205.712,747.43C205.91,747.259 205.912,747.077 205.8,746.947C205.769,746.912 205.657,746.808 205.646,746.769C205.612,746.651 205.649,746.575 205.8,746.5C206.262,745.981 206.404,745.852 206.789,745.506C207.432,744.93 208.476,744.43 209.372,743.553C209.587,743.341 209.646,743.275 209.705,743.226C209.808,743.141 209.927,743.245 209.927,743.245C211.052,744.328 211.528,744.851 211.594,745.29C211.603,745.351 211.594,745.29 211.594,745.29C211.594,745.29 211.615,745.519 211.384,745.735C211.281,745.831 211.2,745.9 211.1,746C210.3,746.7 209.333,747.567 208.8,748C208.52,748.227 208.2,748.4 207.9,748.6C207.6,748.8 207.5,748.8 207.2,748.6C207,748.4 206.7,748.5 206.6,748.7C206.4,748.9 206.252,749.089 206.1,749.4C205.564,750.475 205.414,750.948 203.9,752.6C203.319,753.234 203.2,754 203.1,754.8C203.1,755.4 203.1,756 203,756.6C203,757.9 202.9,758.813 202.8,760.213C202.8,760.413 202.983,760.482 203,760.632C203.017,760.782 202.9,760.949 202.9,761.113C202.9,761.334 203.017,761.783 203,761.957C202.991,762.051 202.9,762.057 202.8,762.157C202.7,762.257 202.7,762.357 202.7,762.457C202.7,763.257 202.6,763.8 202.5,764.7C202.4,765.8 202.4,766.9 202.5,768C202.6,768.9 202.7,769.8 202.7,770.7L202.7,771.5C202.8,771.9 203,772.2 203.3,772.4C203.5,772.5 203.6,772.7 203.8,772.8C203.7,772.8 203.7,772.9 203.6,772.9C203.4,773 203.1,773 202.9,772.9C202.8,772.9 202.7,772.8 202.6,772.7C202.3,772.5 202,772.4 201.7,772.3C201.5,772.3 201.3,772.3 201.2,772.5L201.1,772.6C201,772.7 200.8,772.8 200.6,772.7C200.5,772.7 200.4,772.6 200.3,772.6C200.1,772.5 200,772.6 199.9,772.7C199.8,772.8 199.8,772.9 199.7,772.9C199.7,773 199.6,773 199.6,773.1C199.5,773.1 199.5,773 199.4,773C199.2,772.8 198.9,772.7 198.7,772.5C198.3,772.3 198.2,772.3 197.9,772.6C197.8,772.7 197.7,772.8 197.6,772.9C197.5,772.8 197.5,772.7 197.4,772.6C197.2,772.3 196.8,772.1 196.4,772.3C196.3,772.3 196.2,772.4 196,772.4C196,772.2 196.1,772.1 196.1,772C196.2,771.5 196.3,770.9 196.4,770.4C196.5,769.9 196.5,769.3 196.6,768.8C196.7,768.2 196.7,767.5 196.8,766.9C196.9,765.9 196.9,765 197,764C197,763.6 197.1,763.1 197.2,762.7C197.3,762.2 197.3,761.7 197.3,761.2C197.3,760.4 197.4,759.5 197.5,758.7C197.7,757.6 197.9,756.6 198,755.5C198,755.2 198.1,755 198.2,754.7C198.3,754.3 198.3,753.9 198.1,753.5C197.9,753 197.55,752.53 197.2,752.1C196.833,751.65 196.3,751.2 195.9,750.8C195.7,750.6 195.365,750.349 195.215,750.223C195.097,750.123 194.939,749.91 195.077,749.746C195.182,749.621 195.812,749.224 195.812,749.224Z" style="fill:rgb(242,85,0);fill-rule:nonzero;"/>
                                        <path id="DONE---First-Node-Cleanup-" serif:id="DONE - First Node Cleanup " d="M187.622,741.152C187.715,741.6 187.85,742.525 188.026,743.372C188.117,743.81 188.308,744.424 188.605,745.002C188.76,745.305 189.086,745.443 189.388,745.484C189.648,745.519 189.833,745.166 189.869,745.002C189.938,744.697 189.89,744.46 189.869,744.254C189.816,743.721 190.05,743.465 190.222,743.301C190.306,743.221 190.572,743.139 190.706,743.14C191.032,743.142 191.266,743.27 191.571,744.019C191.634,744.172 191.943,744.53 192.148,744.617C192.601,744.808 192.939,744.704 193.072,744.39C193.154,744.196 193.247,743.828 193.269,743.65C193.303,743.365 193.175,743.192 193.708,742.917C193.965,742.784 194.252,742.96 194.5,743.193C194.671,743.352 194.841,743.567 194.9,744.019C194.937,744.303 195.107,744.665 195.251,744.77C195.373,744.859 195.714,745.012 195.846,745.002C196.166,744.98 196.284,744.805 196.255,744.39C196.229,744.023 196.285,743.796 196.505,743.65C196.903,743.384 197.17,743.497 197.41,743.856C197.525,744.029 197.774,744.102 198.015,744.173C198.269,744.247 197.907,744.53 198.231,744.434C198.389,744.388 198.468,744.395 198.553,744.569C198.579,744.62 198.603,744.675 198.629,744.732C198.689,744.867 198.78,745.021 198.929,745.234C199.119,745.504 199.44,745.787 199.597,745.906C199.64,745.939 199.669,746.056 199.578,746.143C199.389,746.332 199.428,746.332 199.597,746.332C199.765,746.332 199.754,746.719 199.685,746.873C199.54,747.202 199.656,747.337 199.81,747.631C199.972,747.938 199.889,748.184 199.597,748.27C199.377,748.335 198.991,748.195 198.886,748.123C198.51,747.866 198.243,747.881 198.113,748.052C197.884,748.352 197.905,748.492 197.974,748.613C198.183,748.985 198.069,748.784 198.231,749.072C198.384,749.343 198.401,749.433 198.4,749.622C198.398,749.992 198.313,750.24 198.015,750.328C197.948,750.348 197.8,750.37 197.673,750.244C197.516,750.086 196.681,749.382 196.581,749.282C196.481,749.182 196.19,748.956 196.1,748.866C195.935,748.702 195.62,748.682 195.475,748.8C195.28,748.957 194.596,749.5 194.5,749.8C194.409,750.084 194.584,750.33 194.9,750.6C195.165,750.826 196.252,751.605 196.416,751.745C196.534,751.846 196.658,752.005 196.662,752.24C196.666,752.544 196.546,752.737 196.273,752.869C195.809,753.093 195.106,752.745 194.93,752.671C194.717,752.582 194.503,752.478 194.32,752.533C194.139,752.586 193.989,752.711 193.92,752.877C193.819,753.117 193.842,753.271 194.026,753.571C194.383,754.151 194.887,754.462 195.522,754.802C195.961,755.036 196.449,755.196 196.581,755.367C197.104,756.046 197.083,756.117 196.45,755.964C196.043,755.867 195.753,755.773 195.237,755.576C193.911,755.07 191.315,753.734 189.178,750.6C187.511,748.155 186.9,745.035 186.9,743.108C186.9,742.889 186.93,742.099 186.957,741.758C187.086,740.147 187.023,739.977 187.431,740.398C187.611,740.583 187.574,740.923 187.622,741.152Z" style="fill:rgb(242,85,0);fill-rule:nonzero;"/>
                                        <path id="Third-Node-Clean" serif:id="Third Node Clean" d="M187.817,737.489C187.851,737.389 187.986,737.107 188.087,736.912C188.794,735.553 189.127,735.064 189.914,734.033C190.571,733.171 191.72,732.173 193.829,730.953C195.686,729.877 197.117,729.593 198.367,729.378C198.991,729.271 200.43,728.935 202.811,729.263C202.888,729.274 203.152,729.308 203.196,729.316C203.892,729.443 204.062,729.443 203.758,729.634C203.534,729.775 203.321,729.842 203.004,729.809C201.819,729.683 201.61,729.715 200.728,729.809C199.721,729.915 199.287,730.84 198.784,731.75C198.49,732.282 198.324,732.347 197.966,732.512C197.56,732.699 198.102,733.453 198.907,733.386C199.295,733.354 200.085,733.06 200.187,733.605C200.227,733.819 200.012,733.919 199.734,734.092C199.317,734.352 199.072,734.668 199.072,734.668C198.859,734.968 198.788,735.136 199.015,735.265C199.222,735.382 199.876,734.984 200.409,735.1C200.873,735.201 201.127,735.613 201.3,736.054C201.392,736.288 201.239,736.7 201.029,736.804C200.318,737.157 200.301,737.348 200.319,737.549C200.343,737.803 200.703,737.756 201.103,737.856C201.403,737.956 201.513,738.165 201.483,738.379C201.46,738.544 201.385,738.776 201.3,738.923C201.136,739.21 200.98,739.399 200.91,739.605C200.822,739.862 201.159,739.9 201.279,739.974C201.495,740.107 201.482,740.431 201.103,740.568C200.945,740.625 200.973,740.775 201.003,740.858C201.07,741.047 200.511,740.976 200.068,741.253C199.708,741.477 199.688,741.537 199.509,741.671C199.318,741.814 199.353,741.772 199.252,741.671C199.152,741.571 199.013,741.491 198.907,741.579C198.821,741.65 198.621,741.881 198.44,741.76C198.026,741.482 198.402,741.029 198.101,740.943C197.844,740.869 197.665,741.033 197.252,741.118C197.034,741.163 196.842,741.171 196.7,741.134C196.355,741.043 196.161,740.818 196.161,740.576C196.161,740.196 196.436,740.124 196.299,739.914C196.201,739.765 196.2,739.679 195.977,739.605C195.838,739.558 195.716,739.619 195.276,739.644C195.143,739.651 194.696,739.575 194.473,739.323C194.236,739.055 194.083,738.65 194.268,738.402C194.713,737.804 194.975,737.894 194.969,737.609C194.966,737.455 194.587,737.367 194.264,737.498C193.703,737.726 193.5,737.861 193.251,737.773C192.738,737.591 193.264,736.9 193.37,736.576C193.653,735.722 193.363,735.244 192.834,735.51C192.655,735.6 192.185,735.618 191.66,735.51C190.01,735.173 190.028,735.221 189.255,736.274C189.093,736.496 188.884,736.883 188.43,737.628C188.277,737.88 188.123,738.277 187.847,738.379C187.37,738.557 187.515,738.377 187.817,737.489Z" style="fill:rgb(242,85,0);fill-rule:nonzero;"/>
                                        <path id="Second-Node-Clean" serif:id="Second Node Clean" d="M208.2,734.071C208.287,734.004 208.633,733.843 208.824,734.071C209.033,734.322 209.226,734.429 209.359,734.496C209.568,734.601 209.748,734.524 209.7,734.234C209.66,733.986 209.506,733.478 209.29,733.106C208.747,732.17 207.994,731.491 206.735,730.83C206.498,730.706 206.275,730.52 206.229,730.395C206.109,730.069 206.078,729.919 206.478,730.104C206.617,730.167 207.002,730.329 207.236,730.453C209.043,731.412 211.856,733.537 213.336,735.554C214.603,737.281 215.389,740.202 215.47,742.7C215.551,745.198 214.255,748.935 213.569,750.09C212.736,751.494 211.786,752.547 211.486,752.58C210.654,752.67 211.009,752.52 211.606,751.838C212.321,751.02 213.004,750.063 213.569,748.548C214.085,747.168 214.156,746.604 214.167,746.127C214.179,745.6 214.185,744.6 213.849,744.195C213.614,743.912 213.336,743.975 213.336,744.506C213.336,744.86 213.215,745.24 213.112,745.409C212.967,745.646 212.768,745.763 212.349,745.609C212.047,745.497 211.893,745.255 211.893,745.255C211.893,745.255 211.87,744.994 211.793,744.803C211.683,744.529 211.004,743.817 210.75,743.563C210.462,743.275 209.645,742.458 209.545,742.358C209.207,742.02 208.897,741.929 208.597,742.229C208.549,742.277 208.289,742.5 208.2,742.544C208,742.644 207.739,742.828 207.606,742.648C207.53,742.545 207.381,742.342 207.297,742.229C207.202,742.101 207.061,741.851 206.91,741.851C206.758,741.851 206.46,742.096 206.388,742.229C206.32,742.355 206.39,742.409 206.478,742.648C206.511,742.736 206.623,742.992 206.66,743.137C206.714,743.354 206.716,743.526 206.66,743.656C206.605,743.781 206.448,743.881 206.448,743.881C206.448,743.881 206.557,743.851 206.448,743.881C205.995,744.005 205.775,743.74 205.64,743.533C205.502,743.321 205.197,743.347 205.125,743.454C204.969,743.684 205.022,743.606 204.892,743.798C204.696,744.087 204.316,743.923 204.238,743.669C204.189,743.511 204.171,743.444 204.137,743.256C204.111,743.113 204.14,743.12 203.903,743.093C203.831,743.085 203.75,742.735 203.7,742.1C203.672,741.756 203.238,741.504 203.368,741.383C203.479,741.278 203.468,741.272 203.468,741.191C203.468,741.111 203.338,740.918 203.338,740.763C203.338,740.628 203.541,740.412 203.754,740.563C203.835,740.62 204.138,740.763 204.238,740.763C204.438,740.763 204.638,740.763 204.738,740.563C204.838,740.363 204.576,740.033 204.754,739.676C204.978,739.228 205.233,739.221 205.538,739.263C205.945,739.318 206.141,739.205 206.172,739.064C206.273,738.597 205.914,738.574 206.019,738.091C206.103,737.706 206.254,737.363 206.832,737.417C206.979,737.43 207.556,737.742 207.887,737.417C208.209,737.1 208.093,736.242 208,736.041C207.838,735.69 207.586,735.115 207.77,734.648C207.842,734.465 208.003,734.149 208.2,734.071" style="fill:rgb(242,85,0);fill-rule:nonzero;"/>
                                        <path id="Center-Curves-FIXED" serif:id="Center Curves FIXED" d="M201,745.8C200.2,745.8 199.7,745.4 199.4,744.7C198.7,743.2 199.7,741.9 200.8,741.6C201.6,741.4 202.5,741.7 203,742.3C203.1,742.4 203.215,742.685 203.266,742.879C203.316,743.068 203.342,743.314 203.342,743.457C203.342,743.657 203.318,743.804 203.3,743.9C203.1,745 202.1,745.8 201,745.8ZM201.192,742.831C201.192,742.831 201.177,742.975 201.33,743.082C201.369,743.109 201.435,743.123 201.504,743.147C201.557,743.165 201.686,743.196 201.755,743.232C201.816,743.265 201.879,743.308 201.915,743.365C202.048,743.573 201.999,743.915 201.854,744.132C201.654,744.432 201.337,744.416 201.154,744.332C201.027,744.275 200.828,744.153 200.752,743.952C200.721,743.87 200.704,743.774 200.715,743.703C200.735,743.58 200.753,743.537 200.775,743.497C200.822,743.41 200.861,743.32 200.893,743.232C200.953,743.066 200.978,742.829 200.954,742.732C200.925,742.616 200.852,742.498 200.852,742.498C200.852,742.498 200.626,742.86 200.554,742.932C200.354,743.232 200.254,743.432 200.254,743.732C200.254,744.232 200.654,744.632 201.154,744.632C201.654,744.632 202.168,744.332 202.268,743.832C202.338,743.487 202.241,743.224 202.054,743.032C201.959,742.935 201.75,742.946 201.537,742.938C201.444,742.934 201.359,742.916 201.305,742.902C201.256,742.89 201.192,742.831 201.192,742.831Z" style="fill:rgb(242,85,0);fill-rule:nonzero;"/>
                                        <path d="M207.009,742.35C207.104,742.455 207.141,742.505 207.203,742.635C207.264,742.763 207.362,742.9 207.462,743C207.63,743.168 207.967,743.089 208.1,743C208.197,742.935 208.767,742.461 208.856,742.397C208.954,742.327 209.075,742.375 209.149,742.449C209.249,742.549 209.327,742.628 209.427,742.728C209.527,742.828 209.542,742.9 209.442,743C208.182,744.156 207.442,744.549 206.264,745.461C205.912,745.734 205.619,746.149 205.519,746.249C205.454,746.314 205.373,746.403 205.267,746.354C205.209,746.327 205.17,746.257 205.121,746.208C205.004,746.092 204.761,745.895 204.729,745.863C204.618,745.751 204.618,745.539 204.774,745.383C204.874,745.283 204.674,745.483 204.774,745.383C205.274,744.983 206.243,744.5 206.743,744.1C207.143,743.8 207.109,743.319 207.009,742.919C206.961,742.726 206.783,742.406 206.743,742.28C206.737,742.26 206.809,742.146 206.827,742.14C206.845,742.134 206.934,742.267 207.009,742.35Z" style="fill:rgb(242,85,0);fill-rule:nonzero;"/>
                                    </g>
                                </g>
                            </g>
                        </g>
                    </g>
                </g>
            </g>
        </g>
    </g>
</svg>
