<?xml version="1.0" encoding="UTF-8" standalone="no"?>
<!DOCTYPE svg PUBLIC "-//W3C//DTD SVG 1.1//EN" "http://www.w3.org/Graphics/SVG/1.1/DTD/svg11.dtd">
<svg width="100%" height="100%" viewBox="0 0 5790 2826" version="1.1" xmlns="http://www.w3.org/2000/svg" xmlns:xlink="http://www.w3.org/1999/xlink" xml:space="preserve" xmlns:serif="http://www.serif.com/" style="fill-rule:evenodd;clip-rule:evenodd;stroke-linejoin:round;stroke-miterlimit:2;">
    <g transform="matrix(1,0,0,1,-25653.1,0)">
        <g id="_2026-Logo-for-Horizontal-Small" serif:id="2026 Logo for Horizontal Small" transform="matrix(1.29315,0,0,0.939447,7077,126.42)">
            <rect x="14365" y="-134.569" width="4476.79" height="3008.02" style="fill:none;"/>
            <clipPath id="_clip1">
                <rect x="14365" y="-134.569" width="4476.79" height="3008.02"/>
            </clipPath>
            <g clip-path="url(#_clip1)">
                <g transform="matrix(0.88463,0,0,1.21769,14365,-134.569)">
                    <g id="Logo-Design-TBC---Front---Pocket-Size" serif:id="Logo Design TBC - Front - Pocket Size">
                        <rect x="0" y="0" width="3507.87" height="2480.32" style="fill:none;"/>
                        <g id="Screen-Print-Front-" serif:id="Screen Print Front " transform="matrix(1.91847,0,0,0.876707,5467.98,280.536)">
                            <g transform="matrix(25.0916,0,0,54.9072,-7392.36,-40404.4)">
                                <g id="_2024FEB-Update" serif:id="2024FEB Update">
                                    <g>
                                        <g transform="matrix(0.768962,0,0,0.768962,51.7665,183.827)">
                                            <g transform="matrix(0.905259,0,0,0.905259,8.92725,71.6635)">
                                                <g transform="matrix(0.964242,0,0,0.964242,3.5374,26.9595)">
                                                    <path d="M185.628,756.572C185.928,756.572 186.145,756.428 186.4,756.343C186.712,756.238 187,756.143 187.5,755.943C188,755.743 188.5,755.457 188.9,755.3C189.224,755.173 189.5,755.1 189.9,755C190.4,754.9 190.792,755.028 191.085,755.128C191.174,755.158 191.432,755.276 191.509,755.343C191.591,755.414 191.72,755.491 191.772,755.543C192.072,755.843 192.057,756.2 192.057,756.6C192.057,756.7 192.041,756.766 192,757C191.912,756.984 191.809,756.897 191.785,756.8C191.748,756.653 191.715,756.489 191.685,756.4C191.485,755.8 191.3,755.5 190.6,755.5C190,755.5 189.4,755.6 188.8,755.8C188.3,756 187.8,756.2 187.4,756.6C187,756.9 186.6,757.2 186.1,757.4C185.918,757.473 185.8,757.5 185.7,757.6C186,757.8 186.2,757.8 186.5,757.7C186.8,757.6 187,757.4 187.3,757.2C187.8,756.8 188.4,756.5 189,756.2C189.4,756 189.9,755.9 190.3,755.9C190.4,755.9 190.501,755.888 190.6,755.9C190.927,755.939 191.4,756.3 191.4,756.8C191.3,756.8 191.2,756.7 191.2,756.7C190.9,756.5 190.6,756.4 190.2,756.4C189.8,756.4 189.4,756.5 189.1,756.8C188.8,757 188.6,757.2 188.3,757.4C188,757.6 187.8,757.8 187.5,758C187.1,758.3 186.6,758.4 186,758.4L185.7,758.4L185.8,758.5C186.2,758.8 186.6,758.9 187.1,758.7C187.3,758.6 187.5,758.5 187.7,758.3C188.1,758 188.5,757.7 188.9,757.4C189.1,757.3 189.3,757.1 189.5,757C190,756.7 190.769,756.724 191.084,757.069C191.229,757.226 191.354,757.452 191.4,757.7C191.428,757.847 191.583,757.967 191.8,758.1C191.889,758.154 191.89,758.41 191.8,758.5C191.6,758.7 191.5,758.9 191.6,759.2C191.7,759.7 191.684,759.672 191.7,759.911C191.717,760.161 191.733,760.585 191.7,760.7C191.679,760.772 191.57,760.626 191.5,760.6C191.367,760.55 191.1,760.5 190.9,760.4C190.6,760.3 190.3,760.4 190.1,760.7C190,760.9 189.9,761.1 189.8,761.3C189.6,761.6 189.183,761.767 189,761.9C188.903,761.971 188.8,762 188.7,762.1C188.8,762.2 188.887,762.315 189,762.4C189.2,762.55 189.6,762.8 189.9,763C190.5,763.4 191.2,763.5 191.9,763.2C192.4,763 192.8,762.8 193.2,762.4C193.6,762 193.717,761.433 193.8,761C193.876,760.606 193.7,760.2 193.7,759.8C193.7,759.5 193.567,759.2 193.5,759C193.453,758.859 193.4,758.7 193.3,758.6L193.2,758.5C193.2,758.5 193.3,758.5 193.3,758.4C193.6,758.3 193.6,758.1 193.5,757.9C193.5,757.8 193.4,757.7 193.4,757.6L193.4,757.4C193.5,757.4 193.6,757.5 193.7,757.5C194,757.7 194.3,757.7 194.6,757.4C194.7,757.3 194.8,757.2 194.9,757.2C194.9,757.3 195,757.4 194.9,757.5C194.8,758.1 194.9,758.7 195,759.3C195.1,759.8 195,760.1 195,760.6C195,761.1 194.96,761.4 194.86,761.9C194.76,762.9 194.589,763.254 193.8,764C193.335,764.44 192.633,764.761 192.2,764.913C191.885,765.024 191.53,764.96 191.2,764.913C190.833,764.861 190.466,764.833 190,764.6L189.9,764.5C189.839,764.687 189.796,764.91 189.843,765.243C189.843,765.443 189.948,765.672 189.857,765.943C189.789,766.146 189.443,766.343 189.143,766.343C188.743,766.343 188.407,766.174 188.2,766.1C188.087,766.06 188,766 187.9,765.9C187.848,766.003 187.859,766.132 187.947,766.227C188.057,766.345 188.238,766.461 188.367,766.54C188.55,766.65 188.862,766.7 188.962,766.9C189.062,767.4 189.1,768 189.2,768.5C189.4,769.4 189.5,770.4 189.5,771.3C189.5,772.4 189.3,773.4 188.9,774.4C188.5,775.3 188,776 187.2,776.7C187.1,776.8 187,776.9 186.9,777C186.8,777.1 186.7,777.3 186.8,777.4C186.9,777.6 187,777.8 187.1,778C187.2,778.1 187.2,778.2 187.3,778.4C187,778.6 186.6,778.6 186.3,778.3C185.8,777.8 185.4,777.2 185,776.7C184.9,776.5 184.9,776.4 185.1,776.3C185.1,776.3 185.2,776.3 185.3,776.2C186,776 186.5,775.5 186.8,774.8C187.1,774.2 187.3,773.6 187.3,772.9C187.4,772 187.2,771.1 187,770.2C186.9,769.9 186.9,769.7 186.8,769.4C186.8,769.2 186.8,769.1 186.9,768.9C187.1,768.6 187.383,768.183 187.5,768C187.54,767.937 187.6,767.875 187.6,767.8C187.6,767.717 187.567,767.567 187.5,767.5C187.433,767.433 187.303,767.421 187.2,767.4C187.033,767.367 186.8,767.3 186.5,767.3L186.4,767.3C186.2,767.3 186.1,767.4 186.1,767.6C186.1,767.8 186.1,768 186.2,768.2C186.2,768.3 186.3,768.5 186.3,768.6C186.4,768.9 186.3,769.1 186.1,769.3C185.8,769.5 185.6,769.7 185.4,770C184.8,770.6 184.1,770.9 183.4,771C183.1,771.1 182.8,771.1 182.5,771.1L182.2,771.1C181.7,770.9 181.2,770.7 180.8,770.3C180.7,770.2 180.5,770 180.4,769.9C180.3,769.7 180.1,769.6 179.8,769.6C179.6,769.6 179.4,769.6 179.2,769.7L179,769.7C179.2,769.2 179.5,768.9 179.9,768.7C180.1,768.6 180.2,768.6 180.4,768.7C180.5,768.7 180.6,768.8 180.7,768.9C181.5,769.4 182.2,769.5 183,769C183.2,768.9 183.5,768.7 183.7,768.6C183.8,768.6 183.8,768.5 183.9,768.5C184.1,768.4 184.1,768.2 184,768C184,767.9 183.9,767.9 183.9,767.8C183.8,767.7 183.8,767.6 183.7,767.5C183.6,767.4 183.6,767.2 183.8,767.1C183.9,767 184,766.967 184.1,766.9C184.25,766.8 184.551,766.689 184.7,766.5C184.883,766.267 185.3,766 185.2,765.5C185.06,764.798 185,764.5 185,764.1L185,764C185.1,764 185.283,764.017 185.4,764C185.504,763.985 185.613,763.959 185.7,763.9C185.801,763.831 185.908,763.784 186.008,763.584C185.999,763.584 186.008,763.584 186.008,763.584C186.008,763.584 185.968,763.614 185.866,763.636C185.752,763.659 185.657,763.674 185.553,763.667C185.432,763.658 185.285,763.636 185.143,763.584C184.941,763.512 184.724,763.357 184.6,763.2C184.377,762.917 184.153,762.442 184.144,762.1C184.136,761.774 184.196,761.637 184.312,761.463C184.381,761.36 184.812,761.292 185.2,761.379C185.513,761.449 185.762,761.29 185.91,761.115C186.001,761.007 185.482,760.64 185.482,760.64C185.482,760.64 185.434,760.558 185.356,760.22C185.025,758.797 184.536,757.848 184.7,756.774C184.788,756.195 184.83,755.7 184.83,755.5L184.83,755.4C184.73,755 184.319,754.947 184,754.9C183.662,754.85 183.05,755.033 182.8,755.1C182.684,755.131 182.56,755.196 182.5,755.3C182.433,755.417 182.4,755.6 182.4,755.8L182.4,756.1L182.3,756.1C182.2,756.1 182.2,756.1 182.1,756C181.7,755.8 181.395,755.79 181,756C180.917,756.044 180.8,756.1 180.6,756.1C180.6,755.9 180.764,755.764 180.6,755.6C180.486,755.242 180.6,754.8 180.7,754.6C180.642,754.286 180.85,754.032 181.2,754C181.6,753.9 182,753.974 182.4,753.972C182.952,753.97 183.713,753.987 184.513,753.987C184.713,753.987 185.156,754.144 185.356,754.544C185.656,755.044 185.743,755.376 185.713,755.972M190.6,759.5C191,759.5 191.1,759.4 191.2,759.1C191.3,758.6 191.1,758 190.7,757.7C190.6,757.6 190.437,757.6 190.3,757.6C190.133,757.6 189.867,757.617 189.7,757.7C189.533,757.783 189.4,757.9 189.3,758.1C189.2,758.8 189.8,759.5 190.6,759.5Z" style="fill-rule:nonzero;"/>
                                                </g>
                                                <g transform="matrix(0.964242,0,0,0.964242,3.5374,26.9595)">
                                                    <path d="M190.7,759.1C190.6,759.2 190.4,759.2 190.3,759.1C190.1,758.9 189.9,758.8 189.7,758.6C189.5,758.4 189.6,758.2 189.8,758.1C190,758 190.2,758.1 190.4,758.1C190.5,758.1 190.5,758.2 190.5,758.3L190.5,758.5C190.5,758.6 190.4,758.7 190.4,758.8C190.5,758.9 190.6,759 190.7,759.1Z" style="fill-rule:nonzero;"/>
                                                </g>
                                            </g>
                                            <g transform="matrix(0.982627,0,0,0.982627,-1.9158,12.0473)">
                                                <path d="M218.3,755.6C218,755 217.4,754.5 217.1,754.3C216.8,754.1 216.2,754.2 216.1,754.3C215.7,754.6 215.6,755.2 215.6,756C215.6,756.8 215.8,757.9 215.8,758.7C215.8,759.1 215.7,759.5 215.7,759.8C215.6,760.2 215.6,760.6 215.6,761C215.6,761.7 215.4,762.3 215.4,763C215.4,763.7 215.367,764.217 215.4,764.6C215.421,764.842 215.55,765.083 215.6,765.3C215.646,765.498 215.7,765.7 215.7,765.9C215.7,766.1 215.682,766.318 215.5,766.5C215.4,766.6 215,766.75 214.7,766.78C214.6,766.68 214.882,766.377 214.882,766.277C214.882,766.058 214.22,766.019 213.9,766.12C213.526,766.238 213.256,766.621 213.2,766.9C213.161,767.096 213.2,767.294 213.3,767.494C213.4,767.694 213.49,767.667 213.79,767.667C213.89,767.667 213.69,767.667 213.79,767.667C214.49,767.567 214.915,767.38 215.2,767.285C215.312,767.248 215.4,767.2 215.5,767.1C215.6,767 215.724,766.919 215.8,766.943C215.876,766.966 215.957,767.133 215.957,767.243C215.957,767.352 215.906,767.525 215.8,767.6C215.607,767.736 215.083,767.964 214.8,768.057C214.576,768.131 214.3,768.157 214.1,768.157L214,768.157C213.961,768.25 213.933,768.319 213.9,768.4C213.817,768.607 213.7,769.1 213.5,769.4C212.9,770.6 212.9,771.9 213.3,773.3C213.4,773.7 213.6,774.2 213.6,774.6C213.6,775 213.6,775.5 213.5,775.9C213.4,776.2 213.3,776.4 213.1,776.6C212.9,776.8 212.6,776.9 212.4,777.1L212.3,777.1L212.3,777C212.3,776.9 212.4,776.8 212.4,776.7C212.5,776.5 212.6,776.3 212.7,776.2C213,775.7 213,775.2 212.7,774.7C212.5,774.4 212.4,774.1 212.2,773.8C211.7,772.8 211.4,771.7 211.2,770.5C211.1,769.7 211.1,768.8 211.2,768C211.3,767.1 211.5,766.2 211.9,765.3C212,765.1 212.319,764.485 212.2,764.6C212.148,764.65 212.141,764.676 212.1,764.7C211.9,764.817 211.4,765.1 211,765.3C210.5,765.5 210,765.7 209.5,765.8C208.7,765.9 208,765.7 207.4,765.2C206.8,764.7 206.4,764.2 205.9,763.5C205.7,763.2 205.7,763 205.6,762.7C205.5,762.2 205.4,761.8 205.3,761.3C205.3,761.1 205.2,760.9 205.1,760.7C205.1,760.6 205.1,760.4 205.2,760.3C205.3,760.3 205.4,760.4 205.5,760.3C205.6,760.2 205.9,760.1 206,760.1C206.2,760.2 206.3,760.3 206.3,760.5C206.3,760.7 206.4,761 206.7,761.1C206.9,761.1 207.1,761.2 207.1,761.3L207.1,761.4C206.8,761.3 206.6,761.5 206.6,761.7C206.6,761.9 206.6,762 206.7,762.2C206.8,762.6 207.1,763 207.3,763.4C207.5,763.7 207.8,763.9 208.1,764.1C208.7,764.5 209.4,764.6 210.1,764.4C210.6,764.2 211.1,763.9 211.4,763.4C211.7,763.1 211.7,762.7 211.5,762.3C211.4,762.1 211.3,761.9 211.2,761.7C211.1,761.5 211,761.4 210.7,761.4C210.6,761.4 210.6,761.4 210.5,761.3C210.5,761.2 210.4,761.2 210.4,761.1C210.2,760.6 209.8,760.6 209.4,760.9L209.3,761C209.2,761.1 209.1,761.1 209,761.1C208.9,761.1 208.8,761.1 208.7,761C208.7,760.9 208.6,760.8 208.6,760.6C208.6,760.3 208.7,760 208.7,759.7C208.7,759.4 208.8,759.1 208.8,758.8C208.8,758.5 208.8,758.1 208.7,757.8L208.7,757C208.8,756.7 209.004,756.414 209.4,756.6C209.4,756.6 209.5,756.7 209.5,756.8C209.5,756.7 209.792,756.2 209.992,756.3C210.105,756.357 210.1,756.5 210.2,756.5C210.2,756.4 210.255,756.25 210.338,756.2C210.422,756.15 210.525,756.025 210.7,756.2C210.771,756.271 210.9,756.3 210.9,756.3C211.2,756.1 211.5,756.1 211.8,756.4C211.8,756.5 211.7,756.7 211.7,756.9C211.8,756.9 211.813,756.829 211.86,756.74C211.922,756.623 211.887,756.5 211.987,756.5C212.287,756.3 212.6,756.7 212.6,757.1C212.6,757.3 212.533,757.55 212.5,757.7C212.477,757.803 212.4,757.9 212.4,758C212.4,758.1 212.4,758.3 212.5,758.4C212.6,758.5 212.6,758.5 212.7,758.6C213.2,759 213.7,759.3 214.3,759.7C214.4,759.8 214.4,759.8 214.5,759.7C214.5,759.3 214.415,758.901 214.4,758.5C214.383,758.05 214.37,757.499 214.4,757C214.433,756.45 214.5,755.8 214.6,755.2C214.7,754.8 214.8,754.3 215,753.9C215.2,753.5 215.5,753.2 216,753.1C216.4,753 217,753.1 217.3,753.3C217.5,753.4 217.709,753.553 217.9,753.7C218.117,753.867 218.417,754.053 218.6,754.3C218.883,754.683 219.5,755.4 219.6,756C219.6,756.1 219.667,756.133 219.7,756.2C219.767,756.333 219.933,756.65 220,756.8C220.043,756.896 220.1,757 220.1,757.1C220.1,757.2 220.134,757.255 220,757.3C219.92,757.327 219.863,757.231 219.8,757.2C219.6,757.1 219.45,757.2 219.4,757.3C219.346,757.407 219.3,757.5 219.2,757.6C219,757.2 218.8,756.9 218.3,756.9C218.3,756.673 218.44,756.67 218.464,756.6C218.556,756.337 218.5,755.8 218.3,755.6M209.3,759.2C209.3,759.3 209.3,759.5 209.4,759.6C209.5,759.8 209.7,759.9 209.9,759.9C210.1,759.9 210.223,759.837 210.4,759.7C210.836,759.362 210.933,759.098 211.1,758.882C211.215,758.732 211.383,758.564 211.4,758.4C211.417,758.236 211.4,758 211.2,757.9C210.8,757.8 210.3,757.8 209.9,758.1C209.5,758.3 209.3,758.7 209.3,759.2ZM210.972,761.07L211.272,761.07C211.672,761.07 211.8,761.1 211.9,760.7C212,760.5 211.9,760.3 211.6,760.2L211.1,760.2C211,760.2 210.9,760.3 210.8,760.5C210.8,760.8 210.972,760.77 210.972,761.07Z" style="fill-rule:nonzero;"/>
                                                <path d="M209.7,759.4C209.7,759.4 209.898,759.226 209.942,759.108C209.992,758.975 210.1,758.8 210,758.6C209.9,758.4 210.003,758.297 210.1,758.2C210.2,758.1 210.45,758.017 210.6,758C210.737,757.985 210.9,758 211,758.1C211.1,758.2 211.064,758.383 211,758.5C210.9,758.683 210.6,759 210.4,759.2C210.2,759.4 210,759.5 209.7,759.4Z" style="fill-rule:nonzero;"/>
                                                <path d="M213.4,771.1C213.4,771.1 213.4,771 213.4,771.1C213.6,770.5 213.7,770 213.9,769.5C214.1,769 214.318,768.741 214.8,768.5C214.852,768.474 214.872,768.464 215,768.4C215.283,768.259 215.5,768.4 215.7,768.2C215.8,768.1 215.9,768.1 216,768.1C216.1,768.1 216.186,768.281 216.2,768.4C216.233,768.683 216.3,769.383 216.2,769.8C216.103,770.206 215.9,770.6 215.6,770.9C215.4,771.1 215.1,771.2 214.8,771.3C214.3,771.4 213.7,771.3 213.4,771.1Z" style="fill-rule:nonzero;"/>
                                                <path d="M210.7,770.3C210.3,770.1 210,770 209.6,769.8C209.3,769.7 209.2,769.333 209.1,769.2C209.055,769.14 209.1,769.1 209,769C208.9,768.8 208.9,768.6 208.7,768.4C208.6,768.3 208.6,768.3 208.6,768.2C208.6,768.1 208.7,768.1 208.8,768.1C209.2,768.1 209.5,768.1 209.9,768.2C210.2,768.3 210.5,768.5 210.7,768.8C210.8,768.9 210.8,769.1 210.8,769.2C210.8,769.3 210.712,769.463 210.7,769.6C210.683,769.783 210.7,770 210.7,770.3Z" style="fill-rule:nonzero;"/>
                                            </g>
                                        </g>
                                        <g transform="matrix(1,0,0,1,-1.63475,2.21179)">
                                            <path d="M195.812,749.224C195.812,749.224 196.2,749.508 196.4,749.708C197,750.208 197.3,750.6 197.9,751.1C198.6,751.8 199.2,752.4 199.9,753.1C200,753.2 200.009,753.274 200.1,753.3C200.217,753.333 200.489,753.333 200.6,753.3C200.684,753.275 200.746,753.141 200.769,753.1C201.819,751.158 203.101,750.532 204.4,748.8C204.933,748.089 205.024,748.201 205.4,747.7C205.5,747.6 205.621,747.509 205.712,747.43C205.91,747.259 205.912,747.077 205.8,746.947C205.769,746.912 205.657,746.808 205.646,746.769C205.612,746.651 205.649,746.575 205.8,746.5C206.262,745.981 206.404,745.852 206.789,745.506C207.432,744.93 208.476,744.43 209.372,743.553C209.587,743.341 209.646,743.275 209.705,743.226C209.808,743.141 209.927,743.245 209.927,743.245C211.052,744.328 211.528,744.851 211.594,745.29C211.603,745.351 211.594,745.29 211.594,745.29C211.594,745.29 211.615,745.519 211.384,745.735C211.281,745.831 211.2,745.9 211.1,746C210.3,746.7 209.333,747.567 208.8,748C208.52,748.227 208.2,748.4 207.9,748.6C207.6,748.8 207.5,748.8 207.2,748.6C207,748.4 206.7,748.5 206.6,748.7C206.4,748.9 206.252,749.089 206.1,749.4C205.564,750.475 205.414,750.948 203.9,752.6C203.319,753.234 203.2,754 203.1,754.8C203.1,755.4 203.1,756 203,756.6C203,757.9 202.9,758.813 202.8,760.213C202.8,760.413 202.983,760.482 203,760.632C203.017,760.782 202.9,760.949 202.9,761.113C202.9,761.334 203.017,761.783 203,761.957C202.991,762.051 202.9,762.057 202.8,762.157C202.7,762.257 202.7,762.357 202.7,762.457C202.7,763.257 202.6,763.8 202.5,764.7C202.4,765.8 202.4,766.9 202.5,768C202.6,768.9 202.7,769.8 202.7,770.7L202.7,771.5C202.8,771.9 203,772.2 203.3,772.4C203.5,772.5 203.6,772.7 203.8,772.8C203.7,772.8 203.7,772.9 203.6,772.9C203.4,773 203.1,773 202.9,772.9C202.8,772.9 202.7,772.8 202.6,772.7C202.3,772.5 202,772.4 201.7,772.3C201.5,772.3 201.3,772.3 201.2,772.5L201.1,772.6C201,772.7 200.8,772.8 200.6,772.7C200.5,772.7 200.4,772.6 200.3,772.6C200.1,772.5 200,772.6 199.9,772.7C199.8,772.8 199.8,772.9 199.7,772.9C199.7,773 199.6,773 199.6,773.1C199.5,773.1 199.5,773 199.4,773C199.2,772.8 198.9,772.7 198.7,772.5C198.3,772.3 198.2,772.3 197.9,772.6C197.8,772.7 197.7,772.8 197.6,772.9C197.5,772.8 197.5,772.7 197.4,772.6C197.2,772.3 196.8,772.1 196.4,772.3C196.3,772.3 196.2,772.4 196,772.4C196,772.2 196.1,772.1 196.1,772C196.2,771.5 196.3,770.9 196.4,770.4C196.5,769.9 196.5,769.3 196.6,768.8C196.7,768.2 196.7,767.5 196.8,766.9C196.9,765.9 196.9,765 197,764C197,763.6 197.1,763.1 197.2,762.7C197.3,762.2 197.3,761.7 197.3,761.2C197.3,760.4 197.4,759.5 197.5,758.7C197.7,757.6 197.9,756.6 198,755.5C198,755.2 198.1,755 198.2,754.7C198.3,754.3 198.3,753.9 198.1,753.5C197.9,753 197.55,752.53 197.2,752.1C196.833,751.65 196.3,751.2 195.9,750.8C195.7,750.6 195.365,750.349 195.215,750.223C195.097,750.123 194.939,749.91 195.077,749.746C195.182,749.621 195.812,749.224 195.812,749.224Z" style="fill-rule:nonzero;"/>
                                            <path id="DONE---First-Node-Cleanup-" serif:id="DONE - First Node Cleanup " d="M187.622,741.152C187.715,741.6 187.85,742.525 188.026,743.372C188.117,743.81 188.308,744.424 188.605,745.002C188.76,745.305 189.086,745.443 189.388,745.484C189.648,745.519 189.833,745.166 189.869,745.002C189.938,744.697 189.89,744.46 189.869,744.254C189.816,743.721 190.05,743.465 190.222,743.301C190.306,743.221 190.572,743.139 190.706,743.14C191.032,743.142 191.266,743.27 191.571,744.019C191.634,744.172 191.943,744.53 192.148,744.617C192.601,744.808 192.939,744.704 193.072,744.39C193.154,744.196 193.247,743.828 193.269,743.65C193.303,743.365 193.175,743.192 193.708,742.917C193.965,742.784 194.252,742.96 194.5,743.193C194.671,743.352 194.841,743.567 194.9,744.019C194.937,744.303 195.107,744.665 195.251,744.77C195.373,744.859 195.714,745.012 195.846,745.002C196.166,744.98 196.284,744.805 196.255,744.39C196.229,744.023 196.285,743.796 196.505,743.65C196.903,743.384 197.17,743.497 197.41,743.856C197.525,744.029 197.774,744.102 198.015,744.173C198.269,744.247 197.907,744.53 198.231,744.434C198.389,744.388 198.468,744.395 198.553,744.569C198.579,744.62 198.603,744.675 198.629,744.732C198.689,744.867 198.78,745.021 198.929,745.234C199.119,745.504 199.44,745.787 199.597,745.906C199.64,745.939 199.669,746.056 199.578,746.143C199.389,746.332 199.428,746.332 199.597,746.332C199.765,746.332 199.754,746.719 199.685,746.873C199.54,747.202 199.656,747.337 199.81,747.631C199.972,747.938 199.889,748.184 199.597,748.27C199.377,748.335 198.991,748.195 198.886,748.123C198.51,747.866 198.243,747.881 198.113,748.052C197.884,748.352 197.905,748.492 197.974,748.613C198.183,748.985 198.069,748.784 198.231,749.072C198.384,749.343 198.401,749.433 198.4,749.622C198.398,749.992 198.313,750.24 198.015,750.328C197.948,750.348 197.8,750.37 197.673,750.244C197.516,750.086 196.681,749.382 196.581,749.282C196.481,749.182 196.19,748.956 196.1,748.866C195.935,748.702 195.62,748.682 195.475,748.8C195.28,748.957 194.596,749.5 194.5,749.8C194.409,750.084 194.584,750.33 194.9,750.6C195.165,750.826 196.252,751.605 196.416,751.745C196.534,751.846 196.658,752.005 196.662,752.24C196.666,752.544 196.546,752.737 196.273,752.869C195.809,753.093 195.106,752.745 194.93,752.671C194.717,752.582 194.503,752.478 194.32,752.533C194.139,752.586 193.989,752.711 193.92,752.877C193.819,753.117 193.842,753.271 194.026,753.571C194.383,754.151 194.887,754.462 195.522,754.802C195.961,755.036 196.449,755.196 196.581,755.367C197.104,756.046 197.083,756.117 196.45,755.964C196.043,755.867 195.753,755.773 195.237,755.576C193.911,755.07 191.315,753.734 189.178,750.6C187.511,748.155 186.9,745.035 186.9,743.108C186.9,742.889 186.93,742.099 186.957,741.758C187.086,740.147 187.023,739.977 187.431,740.398C187.611,740.583 187.574,740.923 187.622,741.152Z" style="fill-rule:nonzero;"/>
                                            <path id="Third-Node-Clean" serif:id="Third Node Clean" d="M187.817,737.489C187.851,737.389 187.986,737.107 188.087,736.912C188.794,735.553 189.127,735.064 189.914,734.033C190.571,733.171 191.72,732.173 193.829,730.953C195.686,729.877 197.117,729.593 198.367,729.378C198.991,729.271 200.43,728.935 202.811,729.263C202.888,729.274 203.152,729.308 203.196,729.316C203.892,729.443 204.062,729.443 203.758,729.634C203.534,729.775 203.321,729.842 203.004,729.809C201.819,729.683 201.61,729.715 200.728,729.809C199.721,729.915 199.287,730.84 198.784,731.75C198.49,732.282 198.324,732.347 197.966,732.512C197.56,732.699 198.102,733.453 198.907,733.386C199.295,733.354 200.085,733.06 200.187,733.605C200.227,733.819 200.012,733.919 199.734,734.092C199.317,734.352 199.072,734.668 199.072,734.668C198.859,734.968 198.788,735.136 199.015,735.265C199.222,735.382 199.876,734.984 200.409,735.1C200.873,735.201 201.127,735.613 201.3,736.054C201.392,736.288 201.239,736.7 201.029,736.804C200.318,737.157 200.301,737.348 200.319,737.549C200.343,737.803 200.703,737.756 201.103,737.856C201.403,737.956 201.513,738.165 201.483,738.379C201.46,738.544 201.385,738.776 201.3,738.923C201.136,739.21 200.98,739.399 200.91,739.605C200.822,739.862 201.159,739.9 201.279,739.974C201.495,740.107 201.482,740.431 201.103,740.568C200.945,740.625 200.973,740.775 201.003,740.858C201.07,741.047 200.511,740.976 200.068,741.253C199.708,741.477 199.688,741.537 199.509,741.671C199.318,741.814 199.353,741.772 199.252,741.671C199.152,741.571 199.013,741.491 198.907,741.579C198.821,741.65 198.621,741.881 198.44,741.76C198.026,741.482 198.402,741.029 198.101,740.943C197.844,740.869 197.665,741.033 197.252,741.118C197.034,741.163 196.842,741.171 196.7,741.134C196.355,741.043 196.161,740.818 196.161,740.576C196.161,740.196 196.436,740.124 196.299,739.914C196.201,739.765 196.2,739.679 195.977,739.605C195.838,739.558 195.716,739.619 195.276,739.644C195.143,739.651 194.696,739.575 194.473,739.323C194.236,739.055 194.083,738.65 194.268,738.402C194.713,737.804 194.975,737.894 194.969,737.609C194.966,737.455 194.587,737.367 194.264,737.498C193.703,737.726 193.5,737.861 193.251,737.773C192.738,737.591 193.264,736.9 193.37,736.576C193.653,735.722 193.363,735.244 192.834,735.51C192.655,735.6 192.185,735.618 191.66,735.51C190.01,735.173 190.028,735.221 189.255,736.274C189.093,736.496 188.884,736.883 188.43,737.628C188.277,737.88 188.123,738.277 187.847,738.379C187.37,738.557 187.515,738.377 187.817,737.489Z" style="fill-rule:nonzero;"/>
                                            <path id="Second-Node-Clean" serif:id="Second Node Clean" d="M208.2,734.071C208.287,734.004 208.633,733.843 208.824,734.071C209.033,734.322 209.226,734.429 209.359,734.496C209.568,734.601 209.748,734.524 209.7,734.234C209.66,733.986 209.506,733.478 209.29,733.106C208.747,732.17 207.994,731.491 206.735,730.83C206.498,730.706 206.275,730.52 206.229,730.395C206.109,730.069 206.078,729.919 206.478,730.104C206.617,730.167 207.002,730.329 207.236,730.453C209.043,731.412 211.856,733.537 213.336,735.554C214.603,737.281 215.389,740.202 215.47,742.7C215.551,745.198 214.255,748.935 213.569,750.09C212.736,751.494 211.786,752.547 211.486,752.58C210.654,752.67 211.009,752.52 211.606,751.838C212.321,751.02 213.004,750.063 213.569,748.548C214.085,747.168 214.156,746.604 214.167,746.127C214.179,745.6 214.185,744.6 213.849,744.195C213.614,743.912 213.336,743.975 213.336,744.506C213.336,744.86 213.215,745.24 213.112,745.409C212.967,745.646 212.768,745.763 212.349,745.609C212.047,745.497 211.893,745.255 211.893,745.255C211.893,745.255 211.87,744.994 211.793,744.803C211.683,744.529 211.004,743.817 210.75,743.563C210.462,743.275 209.645,742.458 209.545,742.358C209.207,742.02 208.897,741.929 208.597,742.229C208.549,742.277 208.289,742.5 208.2,742.544C208,742.644 207.739,742.828 207.606,742.648C207.53,742.545 207.381,742.342 207.297,742.229C207.202,742.101 207.061,741.851 206.91,741.851C206.758,741.851 206.46,742.096 206.388,742.229C206.32,742.355 206.39,742.409 206.478,742.648C206.511,742.736 206.623,742.992 206.66,743.137C206.714,743.354 206.716,743.526 206.66,743.656C206.605,743.781 206.448,743.881 206.448,743.881C206.448,743.881 206.557,743.851 206.448,743.881C205.995,744.005 205.775,743.74 205.64,743.533C205.502,743.321 205.197,743.347 205.125,743.454C204.969,743.684 205.022,743.606 204.892,743.798C204.696,744.087 204.316,743.923 204.238,743.669C204.189,743.511 204.171,743.444 204.137,743.256C204.111,743.113 204.14,743.12 203.903,743.093C203.831,743.085 203.75,742.735 203.7,742.1C203.672,741.756 203.238,741.504 203.368,741.383C203.479,741.278 203.468,741.272 203.468,741.191C203.468,741.111 203.338,740.918 203.338,740.763C203.338,740.628 203.541,740.412 203.754,740.563C203.835,740.62 204.138,740.763 204.238,740.763C204.438,740.763 204.638,740.763 204.738,740.563C204.838,740.363 204.576,740.033 204.754,739.676C204.978,739.228 205.233,739.221 205.538,739.263C205.945,739.318 206.141,739.205 206.172,739.064C206.273,738.597 205.914,738.574 206.019,738.091C206.103,737.706 206.254,737.363 206.832,737.417C206.979,737.43 207.556,737.742 207.887,737.417C208.209,737.1 208.093,736.242 208,736.041C207.838,735.69 207.586,735.115 207.77,734.648C207.842,734.465 208.003,734.149 208.2,734.071" style="fill-rule:nonzero;"/>
                                            <path id="Center-Curves-FIXED" serif:id="Center Curves FIXED" d="M201,745.8C200.2,745.8 199.7,745.4 199.4,744.7C198.7,743.2 199.7,741.9 200.8,741.6C201.6,741.4 202.5,741.7 203,742.3C203.1,742.4 203.215,742.685 203.266,742.879C203.316,743.068 203.342,743.314 203.342,743.457C203.342,743.657 203.318,743.804 203.3,743.9C203.1,745 202.1,745.8 201,745.8ZM201.192,742.831C201.192,742.831 201.177,742.975 201.33,743.082C201.369,743.109 201.435,743.123 201.504,743.147C201.557,743.165 201.686,743.196 201.755,743.232C201.816,743.265 201.879,743.308 201.915,743.365C202.048,743.573 201.999,743.915 201.854,744.132C201.654,744.432 201.337,744.416 201.154,744.332C201.027,744.275 200.828,744.153 200.752,743.952C200.721,743.87 200.704,743.774 200.715,743.703C200.735,743.58 200.753,743.537 200.775,743.497C200.822,743.41 200.861,743.32 200.893,743.232C200.953,743.066 200.978,742.829 200.954,742.732C200.925,742.616 200.852,742.498 200.852,742.498C200.852,742.498 200.626,742.86 200.554,742.932C200.354,743.232 200.254,743.432 200.254,743.732C200.254,744.232 200.654,744.632 201.154,744.632C201.654,744.632 202.168,744.332 202.268,743.832C202.338,743.487 202.241,743.224 202.054,743.032C201.959,742.935 201.75,742.946 201.537,742.938C201.444,742.934 201.359,742.916 201.305,742.902C201.256,742.89 201.192,742.831 201.192,742.831Z" style="fill-rule:nonzero;"/>
                                            <path d="M207.009,742.35C207.104,742.455 207.141,742.505 207.203,742.635C207.264,742.763 207.362,742.9 207.462,743C207.63,743.168 207.967,743.089 208.1,743C208.197,742.935 208.767,742.461 208.856,742.397C208.954,742.327 209.075,742.375 209.149,742.449C209.249,742.549 209.327,742.628 209.427,742.728C209.527,742.828 209.542,742.9 209.442,743C208.182,744.156 207.442,744.549 206.264,745.461C205.912,745.734 205.619,746.149 205.519,746.249C205.454,746.314 205.373,746.403 205.267,746.354C205.209,746.327 205.17,746.257 205.121,746.208C205.004,746.092 204.761,745.895 204.729,745.863C204.618,745.751 204.618,745.539 204.774,745.383C204.874,745.283 204.674,745.483 204.774,745.383C205.274,744.983 206.243,744.5 206.743,744.1C207.143,743.8 207.109,743.319 207.009,742.919C206.961,742.726 206.783,742.406 206.743,742.28C206.737,742.26 206.809,742.146 206.827,742.14C206.845,742.134 206.934,742.267 207.009,742.35Z" style="fill-rule:nonzero;"/>
                                        </g>
                                    </g>
                                </g>
                            </g>
                            <g transform="matrix(3.64136,0,0,7.96828,-1785.51,1147.86)">
                                <g id="_2024-Text---Vertical" serif:id="2024 Text - Vertical">
                                    <g id="Vertical">
                                        <g>
                                            <g transform="matrix(1.36688,0,0,1.36688,12.6198,-106.417)">
                                                <g transform="matrix(1.53396,0,0,1.0865,-9.24987,-2.79476)">
                                                    <path d="M17.893,-32.495C18.043,-32.135 18.118,-31.849 18.118,-31.639C18.118,-31.218 17.059,-30.445 14.941,-29.318C12.822,-28.191 11.553,-26.366 11.132,-23.842C10.922,-22.64 10.787,-21.363 10.727,-20.011C10.667,-18.659 10.636,-16.781 10.636,-14.377L10.682,-1.713C9.36,-1.592 6.335,-2.051 5.84,-3.087C5.344,-4.124 5.096,-5.694 5.096,-7.797C5.096,-8.789 5.156,-10.186 5.276,-11.989C5.547,-16.015 5.682,-18.674 5.682,-19.966C5.682,-23.001 5.434,-25.006 4.938,-25.983C4.442,-26.959 4.352,-28.003 2.128,-29.115C0.206,-30.107 0.09,-30.933 0.09,-31.594C0.09,-32.135 0.676,-32.586 1.848,-32.946C3.02,-33.307 4.672,-33.637 6.806,-33.938C9.179,-33.817 10.967,-33.712 12.169,-33.622C15.774,-33.322 17.682,-32.946 17.893,-32.495Z" style="fill-rule:nonzero;stroke:black;stroke-width:1.84px;"/>
                                                </g>
                                                <g transform="matrix(0.90146,0,0,0.738338,-2.46855,-0.988708)">
                                                    <path d="M35.515,-3.065C34.944,-3.155 34.569,-3.591 34.388,-4.372C34.208,-5.153 34.118,-6.325 34.118,-7.887L34.118,-9.622C34.118,-10.208 34.133,-10.802 34.163,-11.403C34.163,-15.189 33.667,-17.758 32.676,-19.11C31.834,-20.281 30.542,-20.867 28.8,-20.867C26.756,-20.867 25.359,-19.32 24.608,-16.225C24.278,-14.873 24.007,-12.327 23.797,-8.586C23.587,-4.845 23.136,-2.975 22.445,-2.975C22.355,-2.975 22.219,-3.005 22.039,-3.065C21.408,-2.884 20.98,-3.245 20.755,-4.146C20.529,-5.048 20.417,-6.43 20.417,-8.293C20.417,-9.194 20.447,-10.817 20.507,-13.16C20.567,-15.504 20.597,-16.796 20.597,-17.036C20.537,-17.878 20.507,-18.569 20.507,-19.11C20.417,-21.273 20.372,-22.835 20.372,-23.797C20.372,-25.93 20.462,-34.002 20.642,-35.429C20.822,-36.857 21.138,-37.796 21.588,-38.246C23.031,-37.916 24.097,-36.624 24.788,-34.37C25.119,-33.319 25.645,-26.396 26.366,-26.186C27.868,-25.765 29.386,-25.359 30.918,-24.969C33.051,-24.308 34.584,-23.376 35.515,-22.174C35.936,-21.664 36.364,-20.071 36.8,-17.397C37.235,-14.723 37.453,-12.199 37.453,-9.825C37.453,-7.872 37.303,-6.302 37.002,-5.115C36.702,-3.929 36.206,-3.245 35.515,-3.065Z" style="fill-rule:nonzero;stroke:black;stroke-width:1.48px;"/>
                                                </g>
                                                <g transform="matrix(0.56138,-0.213403,0.173338,0.455983,15.5659,4.56011)">
                                                    <path d="M57.239,-22.67C57.689,-21.348 57.915,-20.191 57.915,-19.2C57.915,-18.058 57.569,-17.262 56.878,-16.811C56.337,-16.451 55.511,-16.27 54.399,-16.27C53.708,-16.27 53.047,-16.315 52.416,-16.405C52.206,-16.405 51.966,-16.42 51.695,-16.451C51.425,-16.481 51.154,-16.496 50.884,-16.496C48.961,-16.496 47.474,-16.06 46.422,-15.189C45.491,-14.407 45.025,-13.446 45.025,-12.304C45.025,-11.853 45.085,-11.463 45.205,-11.132C45.536,-10.171 46.009,-9.48 46.625,-9.059C47.241,-8.638 47.969,-8.428 48.811,-8.428C49.682,-8.428 50.704,-8.616 51.875,-8.991C53.047,-9.367 56.219,-6.292 55.182,-5.375C54.146,-4.459 51.395,-4.958 49.802,-4.958C47.879,-4.958 46.091,-5.574 44.439,-6.806C42.576,-8.188 41.239,-10.111 40.428,-12.574C39.947,-14.017 39.707,-15.624 39.707,-17.397C39.707,-20.732 40.518,-23.587 42.14,-25.96C43.913,-28.574 46.227,-29.881 49.081,-29.881C50.854,-29.881 52.461,-29.265 53.904,-28.033C55.346,-26.802 56.458,-25.014 57.239,-22.67ZM49.532,-21.228C49.652,-21.198 49.832,-21.183 50.073,-21.183C51.004,-21.183 51.47,-21.649 51.47,-22.58C51.47,-23.271 51.214,-23.917 50.704,-24.518C50.103,-25.209 49.397,-25.555 48.585,-25.555C47.954,-25.555 47.481,-25.412 47.166,-25.126C46.85,-24.841 46.692,-24.458 46.692,-23.977C46.692,-23.376 46.948,-22.805 47.459,-22.265C47.969,-21.724 48.66,-21.378 49.532,-21.228Z" style="fill-rule:nonzero;stroke:black;stroke-width:2.24px;"/>
                                                </g>
                                            </g>
                                            <g transform="matrix(2.37285,0,0,2.37285,-174.711,0.553423)">
                                                <g transform="matrix(1.55968,0,0,1.25553,-57.4818,5.36532)">
                                                    <path d="M103.255,-22.129C103.255,-21.889 103.676,-19.771 104.517,-15.774C104.938,-13.791 105.148,-12.139 105.148,-10.817C105.148,-8.503 104.682,-6.595 103.751,-5.093C102.609,-3.23 100.686,-1.848 97.982,-0.946C97.291,-0.766 96.352,-0.593 95.165,-0.428C93.978,-0.263 92.799,-0.18 91.627,-0.18C90.515,-0.18 89.509,-0.278 88.607,-0.473C87.706,-0.669 86.985,-0.992 86.444,-1.442C85.753,-2.043 85.272,-2.689 85.002,-3.38C84.731,-4.071 84.596,-4.868 84.596,-5.769C84.596,-6.22 84.701,-7.361 84.912,-9.194C85.032,-10.246 85.092,-11.012 85.092,-11.493L85.092,-12.034C85.092,-12.244 85.062,-12.559 85.002,-12.98C84.821,-14.272 84.686,-15.309 84.596,-16.09C84.236,-19.065 84.055,-21.649 84.055,-23.842C84.055,-26.877 84.341,-29.31 84.912,-31.143C85.633,-33.427 86.812,-34.756 88.45,-35.132C90.087,-35.508 91.657,-35.695 93.159,-35.695C96.735,-35.695 99.349,-34.448 101.002,-31.955C102.504,-29.701 103.255,-26.426 103.255,-22.129ZM96.54,-22.129C97.561,-22.67 98.32,-23.301 98.816,-24.022C99.311,-24.743 99.559,-25.495 99.559,-26.276C99.559,-27.418 99.041,-28.417 98.004,-29.273C96.968,-30.129 95.713,-30.557 94.241,-30.557C93.58,-30.557 92.829,-30.445 91.988,-30.219C91.146,-29.994 90.478,-29.528 89.982,-28.822C89.486,-28.116 89.238,-27.327 89.238,-26.456C89.238,-25.194 89.689,-24.037 90.59,-22.986C91.492,-21.934 92.604,-21.408 93.926,-21.408C94.737,-21.408 95.608,-21.649 96.54,-22.129ZM97.035,-5.273C98.327,-6.024 99.311,-6.941 99.987,-8.022C100.664,-9.104 101.002,-10.186 101.002,-11.267C101.002,-12.62 100.498,-13.761 99.492,-14.693C98.485,-15.624 97.08,-16.09 95.278,-16.09C94.707,-16.09 93.896,-15.992 92.844,-15.797C91.792,-15.602 90.898,-14.993 90.162,-13.972C89.426,-12.95 89.058,-11.763 89.058,-10.411C89.058,-9.84 89.148,-9.254 89.328,-8.653C89.689,-7.452 90.403,-6.565 91.469,-5.994C92.536,-5.423 93.775,-5.138 95.188,-5.138C95.819,-5.138 96.434,-5.183 97.035,-5.273Z" style="fill-rule:nonzero;stroke:black;stroke-width:2.12px;"/>
                                                </g>
                                                <g transform="matrix(0.865656,0,0,0.865656,16.6103,-5.58657)">
                                                    <path d="M119.21,-5.138C118.969,-5.108 118.804,-5.093 118.714,-5.093C115.709,-5.093 113.065,-6.655 110.782,-9.78C108.618,-12.755 107.537,-16.03 107.537,-19.605C107.537,-22.129 108.138,-24.263 109.339,-26.005C110.722,-27.988 112.765,-29.28 115.469,-29.881C116.34,-30.062 117.137,-30.152 117.858,-30.152C120.772,-30.152 123.071,-28.815 124.753,-26.141C126.256,-23.767 127.007,-20.837 127.007,-17.352C127.007,-14.107 126.361,-11.328 125.069,-9.014C123.627,-6.43 121.674,-5.138 119.21,-5.138ZM118.939,-9.555C120.712,-9.975 122.064,-10.892 122.996,-12.304C123.837,-13.566 124.258,-15.068 124.258,-16.811C124.258,-19.155 123.582,-21.28 122.229,-23.188C120.877,-25.096 119.21,-26.05 117.227,-26.05C116.836,-26.05 116.415,-26.005 115.965,-25.915C114.312,-25.525 113.043,-24.563 112.156,-23.031C111.27,-21.498 110.827,-19.756 110.827,-17.803C110.827,-15.519 111.368,-13.581 112.449,-11.989C113.651,-10.216 115.259,-9.329 117.272,-9.329C117.722,-9.329 118.278,-9.405 118.939,-9.555Z" style="fill-rule:nonzero;stroke:black;stroke-width:1.73px;"/>
                                                </g>
                                                <g transform="matrix(-0.74887,-0.253482,0.253482,-0.74887,246.852,8.51833)">
                                                    <path d="M141.294,-5.138C141.054,-5.108 140.888,-5.093 140.798,-5.093C137.794,-5.093 135.15,-6.655 132.866,-9.78C130.703,-12.755 129.621,-16.03 129.621,-19.605C129.621,-22.129 130.222,-24.263 131.424,-26.005C132.806,-27.988 134.849,-29.28 137.553,-29.881C138.425,-30.062 139.221,-30.152 139.942,-30.152C142.856,-30.152 145.155,-28.815 146.838,-26.141C148.34,-23.767 149.091,-20.837 149.091,-17.352C149.091,-14.107 148.445,-11.328 147.153,-9.014C145.711,-6.43 143.758,-5.138 141.294,-5.138ZM141.024,-9.555C142.796,-9.975 144.148,-10.892 145.08,-12.304C145.921,-13.566 146.342,-15.068 146.342,-16.811C146.342,-19.155 145.666,-21.28 144.314,-23.188C142.962,-25.096 141.294,-26.05 139.311,-26.05C138.92,-26.05 138.5,-26.005 138.049,-25.915C136.396,-25.525 135.127,-24.563 134.241,-23.031C133.354,-21.498 132.911,-19.756 132.911,-17.803C132.911,-15.519 133.452,-13.581 134.534,-11.989C135.735,-10.216 137.343,-9.329 139.356,-9.329C139.807,-9.329 140.363,-9.405 141.024,-9.555Z" style="fill-rule:nonzero;stroke:black;stroke-width:1.9px;"/>
                                                </g>
                                                <g transform="matrix(1.20995,0.0519249,-0.0428754,0.99908,-36.406,-12.8892)">
                                                    <path d="M168.787,-15.91L168.787,-13.386C168.787,-10.772 168.636,-8.879 168.336,-7.707C167.855,-5.874 166.879,-4.267 165.406,-2.884C164.565,-2.103 163.664,-1.517 162.702,-1.127C161.741,-0.736 160.794,-0.541 159.863,-0.541C158.571,-0.541 157.391,-0.879 156.325,-1.555C155.258,-2.231 154.439,-3.155 153.869,-4.327C153.989,-4.357 154.244,-4.372 154.635,-4.372C155.085,-4.372 155.852,-4.334 156.933,-4.259C158.015,-4.184 158.706,-4.146 159.006,-4.146C160.329,-4.146 161.305,-4.282 161.936,-4.552C162.807,-4.913 163.243,-5.559 163.243,-6.49C163.243,-6.791 163.168,-7.196 163.018,-7.707C162.657,-8.819 161.41,-9.69 159.277,-10.321C156.843,-11.042 154.875,-12.74 153.373,-15.414C152.111,-17.727 151.48,-20.296 151.48,-23.121C151.48,-26.095 152.171,-28.694 153.553,-30.918C155.055,-33.322 157.084,-34.734 159.637,-35.154C160.689,-35.335 161.636,-35.425 162.477,-35.425C165.091,-35.425 166.909,-34.524 167.93,-32.721C168.742,-31.309 169.147,-29.07 169.147,-26.005C169.147,-24.984 169.087,-23.346 168.967,-21.093C168.847,-18.839 168.787,-17.112 168.787,-15.91ZM161.575,-15.414C163.258,-15.654 164.52,-16.27 165.361,-17.262C166.112,-18.133 166.488,-19.245 166.488,-20.597C166.488,-22.82 165.662,-25.089 164.009,-27.402C162.357,-29.716 160.779,-30.873 159.277,-30.873C159.127,-30.873 158.931,-30.843 158.691,-30.783C157.579,-30.482 156.61,-29.446 155.784,-27.673C154.958,-25.9 154.545,-24.007 154.545,-21.994C154.545,-20.071 154.965,-18.524 155.807,-17.352C156.798,-16 158.255,-15.324 160.178,-15.324L160.674,-15.324C160.854,-15.324 161.155,-15.354 161.575,-15.414Z" style="fill-rule:nonzero;stroke:black;stroke-width:1.35px;"/>
                                                </g>
                                                <g transform="matrix(0.99908,0.0428754,-0.0428754,0.99908,1.80795,-10.1175)">
                                                    <path d="M174.601,-19.245C174.601,-18.794 174.616,-18.028 174.646,-16.946C174.676,-15.865 174.691,-15.038 174.691,-14.467C174.691,-12.695 174.571,-11.388 174.33,-10.546C174,-9.405 173.399,-8.774 172.527,-8.653C172.197,-9.645 171.866,-10.652 171.536,-11.673C171.235,-13.927 171.085,-16.405 171.085,-19.11C171.085,-21.393 171.198,-23.316 171.423,-24.879C171.649,-26.441 172.017,-27.297 172.527,-27.448C173.399,-26.787 173.985,-26.05 174.285,-25.239C174.586,-24.428 174.736,-23.481 174.736,-22.4C174.736,-21.889 174.721,-21.363 174.691,-20.822C174.661,-20.281 174.631,-19.756 174.601,-19.245Z" style="fill-rule:nonzero;stroke:black;stroke-width:1.5px;"/>
                                                </g>
                                                <g transform="matrix(0.622258,-0.107066,0.107066,0.622258,-32.4568,25.2088)">
                                                    <path d="M366.574,-17.454C364.248,-14.892 358.803,-15.092 357.207,-14.29C354.65,-13.005 356.726,-11.107 358.641,-10.159C360.744,-9.118 364.611,-8.236 365.101,-8.053C367.868,-7.02 357.006,-3.966 353.348,-6.806C347.237,-11.547 346.948,-22.368 352.48,-27.676C357.369,-32.367 365.437,-29.623 366.936,-23.158C367.232,-21.882 367.452,-18.422 366.574,-17.454ZM358.441,-21.228C358.616,-21.184 358.801,-21.176 358.981,-21.183C359.187,-21.19 359.397,-21.205 359.593,-21.27C360.363,-21.527 360.462,-22.402 360.331,-23.09C360.12,-24.195 359.192,-25.237 358.083,-25.49C357.241,-25.681 356.092,-25.53 355.72,-24.625C355.636,-24.422 355.615,-24.196 355.601,-23.977C355.584,-23.709 355.685,-23.338 355.793,-23.098C356.267,-22.038 357.333,-21.419 358.441,-21.228Z" style="fill-rule:nonzero;stroke:black;stroke-width:2.37px;"/>
                                                </g>
                                            </g>
                                            <g transform="matrix(2.73459,0,0,2.73459,-584.078,139.062)">
                                                <g transform="matrix(1.30614,0,0,1.07539,-75.9171,2.284)">
                                                    <path d="M243.828,-14.555C243.828,-12.091 242.761,-4.642 240.628,-2.93C238.495,-1.217 236.091,-0.361 233.417,-0.361C232.185,-0.361 230.998,-0.586 229.856,-1.037C227.723,-1.878 225.77,-3.846 223.997,-6.941C222.134,-10.186 221.203,-13.506 221.203,-16.901C221.203,-20.807 221.609,-23.902 222.42,-26.186C223.441,-29.04 225.274,-31.399 227.918,-33.262C228.94,-33.983 229.984,-34.516 231.051,-34.862C232.117,-35.207 233.191,-35.38 234.273,-35.38C236.376,-35.38 238.269,-34.734 239.952,-33.442C241.635,-32.15 242.761,-30.482 243.332,-28.439C243.212,-28.409 243.032,-28.394 242.791,-28.394C242.13,-28.394 240.181,-27.26 237.146,-28.642C235.704,-29.303 234.442,-29.634 233.361,-29.634C232.189,-29.634 230.987,-29.273 229.755,-28.552C227.562,-27.23 227.67,-27.252 227.039,-24.969C226.648,-23.557 226.453,-23.352 226.453,-19.716C226.453,-16.471 226.784,-13.932 227.445,-12.1C228.346,-9.636 232.848,-8.894 234.138,-9.552C235.048,-10.017 235.922,-10.778 238.446,-12.852C239.738,-13.903 242.205,-14.345 243.828,-14.555Z" style="fill-rule:nonzero;stroke:black;stroke-width:2.18px;"/>
                                                </g>
                                                <g transform="matrix(-0.840108,0,0,0.595923,468.751,-6.75096)">
                                                    <path d="M257.935,-5.138C257.694,-5.108 257.529,-5.093 257.439,-5.093C254.434,-5.093 251.79,-6.655 249.507,-9.78C247.343,-12.755 246.262,-16.03 246.262,-19.605C246.262,-22.129 246.863,-24.263 248.065,-26.005C249.447,-27.988 251.49,-29.28 254.194,-29.881C255.065,-30.062 255.862,-30.152 256.583,-30.152C259.497,-30.152 261.796,-28.815 263.478,-26.141C264.981,-23.767 265.732,-20.837 265.732,-17.352C265.732,-14.107 265.086,-11.328 263.794,-9.014C262.352,-6.43 260.399,-5.138 257.935,-5.138ZM257.664,-9.555C259.437,-9.975 260.789,-10.892 261.721,-12.304C262.562,-13.566 262.983,-15.068 262.983,-16.811C262.983,-19.155 262.307,-21.28 260.955,-23.188C259.602,-25.096 257.935,-26.05 255.952,-26.05C255.561,-26.05 255.141,-26.005 254.69,-25.915C253.037,-25.525 251.768,-24.563 250.881,-23.031C249.995,-21.498 249.552,-19.756 249.552,-17.803C249.552,-15.519 250.093,-13.581 251.174,-11.989C252.376,-10.216 253.984,-9.329 255.997,-9.329C256.448,-9.329 257.003,-9.405 257.664,-9.555Z" style="fill-rule:nonzero;stroke:black;stroke-width:1.79px;"/>
                                                </g>
                                                <g transform="matrix(0.994775,-0.10209,0.10209,0.994775,-0.824369,20.835)">
                                                    <path d="M271.591,-18.614C271.591,-16.691 271.614,-14.888 271.659,-13.205C271.704,-11.523 271.756,-9.96 271.816,-8.518C271.816,-6.926 271.719,-5.807 271.523,-5.16C271.328,-4.514 270.915,-4.191 270.284,-4.191C270.014,-4.191 269.803,-4.222 269.653,-4.282C269.052,-4.672 268.639,-5.438 268.414,-6.58C268.188,-7.722 268.076,-9.239 268.076,-11.132C268.076,-11.763 268.091,-12.86 268.121,-14.422C268.151,-15.985 268.166,-17.217 268.166,-18.118C268.166,-19.59 268.158,-20.965 268.143,-22.242C268.128,-23.519 268.121,-24.698 268.121,-25.78C268.121,-28.033 268.196,-29.468 268.346,-30.084C268.496,-30.7 268.932,-31.339 269.653,-32C270.614,-31.489 271.193,-31.038 271.388,-30.648C271.583,-30.257 271.681,-29.115 271.681,-27.222C271.681,-26.411 271.666,-24.954 271.636,-22.85C271.606,-20.747 271.591,-19.335 271.591,-18.614Z" style="fill-rule:nonzero;stroke:black;stroke-width:1.3px;"/>
                                                </g>
                                                <g transform="matrix(0.958049,0.0912317,-0.104779,1.10032,10.0933,-31.5396)">
                                                    <path d="M277.54,-18.614C277.54,-16.691 277.563,-14.888 277.608,-13.205C277.653,-11.523 277.705,-9.96 277.766,-8.518C277.766,-6.926 277.668,-5.807 277.473,-5.16C277.277,-4.514 276.864,-4.191 276.233,-4.191C275.963,-4.191 275.752,-4.222 275.602,-4.282C275.001,-4.672 274.588,-5.438 274.363,-6.58C274.137,-7.722 274.025,-9.239 274.025,-11.132C274.025,-11.763 274.04,-12.86 274.07,-14.422C274.1,-15.985 274.115,-17.217 274.115,-18.118C274.115,-19.59 274.107,-20.965 274.092,-22.242C274.077,-23.519 274.07,-24.698 274.07,-25.78C274.07,-28.033 274.145,-29.468 274.295,-30.084C274.445,-30.7 274.881,-31.339 275.602,-32C276.564,-31.489 277.142,-31.038 277.337,-30.648C277.533,-30.257 277.63,-29.115 277.63,-27.222C277.63,-26.411 277.615,-24.954 277.585,-22.85C277.555,-20.747 277.54,-19.335 277.54,-18.614Z" style="fill-rule:nonzero;stroke:black;stroke-width:1.26px;"/>
                                                </g>
                                                <g transform="matrix(0.645325,0.0814979,-0.0694103,0.549612,99.1535,-29.4265)">
                                                    <path d="M297.551,-22.67C298.002,-21.348 298.227,-20.191 298.227,-19.2C298.227,-18.058 297.882,-17.262 297.191,-16.811C296.65,-16.451 295.824,-16.27 294.712,-16.27C294.021,-16.27 293.36,-16.315 292.729,-16.405C292.518,-16.405 292.278,-16.42 292.008,-16.451C291.737,-16.481 291.467,-16.496 291.196,-16.496C289.273,-16.496 287.786,-16.06 286.734,-15.189C285.803,-14.407 285.337,-13.446 285.337,-12.304C285.337,-11.853 285.397,-11.463 285.518,-11.132C285.848,-10.171 286.321,-9.48 286.937,-9.059C287.553,-8.638 288.282,-8.428 289.123,-8.428C289.995,-8.428 291.016,-8.616 292.188,-8.991C293.36,-9.367 294.502,-9.75 295.613,-10.141C295.613,-8.518 295.095,-7.249 294.058,-6.332C293.022,-5.416 291.707,-4.958 290.115,-4.958C288.192,-4.958 286.404,-5.574 284.751,-6.806C282.889,-8.188 281.551,-10.111 280.74,-12.574C280.259,-14.017 280.019,-15.624 280.019,-17.397C280.019,-20.732 280.83,-23.587 282.453,-25.96C284.226,-28.574 286.539,-29.881 289.394,-29.881C291.166,-29.881 292.774,-29.265 294.216,-28.033C295.658,-26.802 296.77,-25.014 297.551,-22.67ZM289.844,-21.228C289.964,-21.198 290.145,-21.183 290.385,-21.183C291.317,-21.183 291.782,-21.649 291.782,-22.58C291.782,-23.271 291.527,-23.917 291.016,-24.518C290.415,-25.209 289.709,-25.555 288.898,-25.555C288.267,-25.555 287.794,-25.412 287.478,-25.126C287.163,-24.841 287.005,-24.458 287.005,-23.977C287.005,-23.376 287.26,-22.805 287.771,-22.265C288.282,-21.724 288.973,-21.378 289.844,-21.228Z" style="fill-rule:nonzero;stroke:black;stroke-width:2.15px;"/>
                                                </g>
                                                <g transform="matrix(0.818762,0.111685,-0.0776173,0.569012,48.3551,-37.4004)">
                                                    <path d="M314.948,-10.276C314.948,-8.623 314.347,-7.316 313.145,-6.355C312.064,-5.484 310.712,-5.048 309.089,-5.048C307.857,-5.048 306.761,-5.348 305.799,-5.949C304.267,-6.851 303.035,-8.173 302.103,-9.915C301.052,-11.868 300.526,-14.077 300.526,-16.541C300.526,-20.747 301.472,-24.082 303.365,-26.546C305.048,-28.71 307.031,-29.791 309.314,-29.791C310.637,-29.791 311.808,-29.393 312.83,-28.597C313.852,-27.801 314.558,-26.666 314.948,-25.194C312.104,-25.712 311.003,-26.309 307.666,-24.924C306.074,-24.263 305.335,-22.056 305.335,-18.33C305.335,-15.145 305.755,-12.877 306.597,-11.525C307.318,-10.353 308.43,-9.767 309.932,-9.767C310.803,-9.767 313.626,-9.855 314.948,-10.276Z" style="fill-rule:nonzero;stroke:black;stroke-width:1.83px;"/>
                                                </g>
                                                <g transform="matrix(-1.38486,-0.0244745,-0.0166625,0.942824,760.761,7.13323)">
                                                    <path d="M323.962,-2.524C323.692,-2.494 323.496,-2.479 323.376,-2.479C321.573,-2.479 320.312,-3.395 319.59,-5.228C319.08,-6.55 318.824,-8.578 318.824,-11.313C318.824,-12.274 318.839,-13.205 318.869,-14.107C318.899,-15.008 318.929,-15.895 318.959,-16.766C318.959,-17.938 318.764,-19.215 318.374,-20.597C317.502,-23.692 310.63,-26.542 310.63,-27.023C310.63,-27.654 310.593,-28.315 310.923,-28.803C311.731,-29.998 317.893,-28.845 318.374,-29.386C318.584,-29.926 318.832,-30.49 319.117,-31.076C319.403,-31.662 319.831,-32.15 320.402,-32.54C321.483,-32.15 322.235,-31.729 322.655,-31.278C323.226,-30.648 323.511,-29.716 323.511,-28.484C323.962,-28.124 326.617,-26.697 326.812,-26.231C327.007,-25.765 327.105,-25.262 327.105,-24.721C327.105,-24.06 326.977,-23.429 326.722,-22.828C326.467,-22.227 323.639,-22.096 323.309,-21.825C322.948,-20.954 322.888,-20.875 322.723,-20.169C322.558,-19.463 322.4,-18.516 322.25,-17.329C322.099,-16.143 322.024,-15.158 322.024,-14.377C322.024,-12.484 322.31,-10.727 322.881,-9.104C323.451,-7.482 324.052,-5.844 324.683,-4.191C324.683,-3.831 324.638,-3.538 324.548,-3.313C324.458,-3.087 324.263,-2.824 323.962,-2.524Z" style="fill-rule:nonzero;stroke:black;stroke-width:1.1px;"/>
                                                </g>
                                                <g transform="matrix(0.988097,-0.118208,0.104434,0.87296,3.94831,44.1004)">
                                                    <path d="M330.542,-19.245C330.542,-18.794 330.557,-18.028 330.587,-16.946C330.618,-15.865 330.633,-15.038 330.633,-14.467C330.633,-12.695 330.512,-11.388 330.272,-10.546C329.941,-9.405 329.341,-8.774 328.469,-8.653C328.139,-9.645 327.808,-10.652 327.478,-11.673C327.177,-13.927 327.027,-16.405 327.027,-19.11C327.027,-21.393 327.14,-23.316 327.365,-24.879C327.59,-26.441 327.958,-27.297 328.469,-27.448C329.341,-26.787 329.926,-26.05 330.227,-25.239C330.527,-24.428 330.678,-23.481 330.678,-22.4C330.678,-21.889 330.663,-21.363 330.633,-20.822C330.602,-20.281 330.572,-19.756 330.542,-19.245Z" style="fill-rule:nonzero;stroke:black;stroke-width:1.39px;"/>
                                                </g>
                                                <g transform="matrix(1.36945,-0.135155,0.0776576,0.786858,-121.732,46.4618)">
                                                    <path d="M345.911,-27.718C346.182,-27.448 346.317,-26.741 346.317,-25.6C346.317,-22.655 345.611,-18.959 344.199,-14.512C342.696,-9.795 341.299,-7.437 340.007,-7.437C338.865,-7.437 337.859,-8.338 336.987,-10.141C336.326,-11.553 335.635,-13.874 334.914,-17.104C334.193,-20.334 333.502,-23.541 332.841,-26.726C333.081,-26.787 333.232,-26.817 333.292,-26.817C333.622,-26.817 334.328,-25.735 335.41,-23.572C336.492,-21.408 338.024,-20.327 340.007,-20.327C341.93,-20.327 343.312,-21.423 344.153,-23.617C345.175,-26.261 345.761,-27.628 345.911,-27.718Z" style="fill-rule:nonzero;stroke:black;stroke-width:1.16px;"/>
                                                </g>
                                                <g transform="matrix(0.571625,0.021759,-0.021759,0.571625,154.731,-11.6621)">
                                                    <path d="M361.075,-14.66C359.411,-14.66 357.76,-15.584 356.162,-15.488C353.307,-15.315 355.856,-13.138 357.212,-11.109C358.516,-9.158 361.319,-6.791 361.368,-6.271C361.606,-3.77 357.006,-3.966 353.348,-6.806C347.237,-11.547 346.948,-22.368 352.48,-27.676C357.369,-32.367 364.116,-29.165 366.936,-23.158C368.538,-19.745 366.448,-15.479 365.537,-15.066C364.096,-14.412 362.582,-14.445 361.075,-14.66ZM358.441,-21.228C358.616,-21.184 358.801,-21.176 358.981,-21.183C359.187,-21.19 359.397,-21.205 359.593,-21.27C360.363,-21.527 360.462,-22.402 360.331,-23.09C360.12,-24.195 359.192,-25.237 358.083,-25.49C357.241,-25.681 356.092,-25.53 355.72,-24.625C355.636,-24.422 355.615,-24.196 355.601,-23.977C355.584,-23.709 355.685,-23.338 355.793,-23.098C356.267,-22.038 357.333,-21.419 358.441,-21.228Z" style="fill-rule:nonzero;stroke:black;stroke-width:2.27px;"/>
                                                </g>
                                            </g>
                                        </g>
                                    </g>
                                </g>
                            </g>
                        </g>
                    </g>
                </g>
            </g>
        </g>
    </g>
</svg>
